<?xml version="1.0" encoding="utf-8"?>
<svg id="aaba0e37-9041-4e47-99c0-3bc98a69ed5f" data-name="Layer 1" width="913.2141" height="482.65195" viewBox="0 0 913.2141 482.65195" xmlns="http://www.w3.org/2000/svg">
  <circle cx="195.50782" cy="290.65195" r="2" fill="#fff"/>
  <polygon points="80.937 471.198 93.197 471.198 99.029 423.91 80.935 423.911 80.937 471.198" fill="#ffb8b8"/>
  <path d="M221.70288,676.36888h38.53073a0,0,0,0,1,0,0v14.88687a0,0,0,0,1,0,0H236.58973a14.88686,14.88686,0,0,1-14.88686-14.88686v0A0,0,0,0,1,221.70288,676.36888Z" transform="translate(338.57474 1158.93961) rotate(179.99738)" fill="#2f2e41"/>
  <polygon points="34.937 471.198 47.197 471.198 53.029 423.91 34.935 423.911 34.937 471.198" fill="#ffb8b8"/>
  <path d="M175.70288,676.36888h38.53073a0,0,0,0,1,0,0v14.88687a0,0,0,0,1,0,0H190.58973a14.88686,14.88686,0,0,1-14.88686-14.88686v0a0,0,0,0,1,0,0Z" transform="translate(246.57474 1158.94171) rotate(179.99738)" fill="#2f2e41"/>
  <path d="M179.8272,539.03387a10.7427,10.7427,0,0,0,2.06222-16.343l8.0725-114.55784-23.253,2.25509-.63868,112.18665a10.80091,10.80091,0,0,0,13.757,16.45913Z" transform="translate(-143.39295 -208.67402)" fill="#ffb8b8"/>
  <path d="M224.69537,656.05548a4.5171,4.5171,0,0,1-4.46875-3.96582l-7.12622-59.60254a3.5,3.5,0,0,0-6.93287-.12793l-8.977,57.06738a4.47888,4.47888,0,0,1-4.44531,3.80078h-14.55a4.50047,4.50047,0,0,1-4.5-4.53418L180.63946,522.159a4.47381,4.47381,0,0,1,3.85351-4.41992l53.99366-7.83789a4.50111,4.50111,0,0,1,5.14648,4.48535l-.94189,136.55664a4.499,4.499,0,0,1-4.28589,4.46289l-13.49634.64356Q224.8017,656.05547,224.69537,656.05548Z" transform="translate(-143.39295 -208.67402)" fill="#2f2e41"/>
  <path d="M196.70269,526.93927a45.08471,45.08471,0,0,1-15.22583-2.71094,4.46544,4.46544,0,0,1-2.918-4.00488c-.46582-10.33692-3.19092-63.54395-11.12451-95.999a33.17817,33.17817,0,0,1,12.63647-34.57324q.64014-.46,1.30518-.90332a32.30589,32.30589,0,0,1,31.39551-2.46094,33.21917,33.21917,0,0,1,19.36352,25.957l12.9375,96.05078a4.47791,4.47791,0,0,1-.93115,3.40137,4.418,4.418,0,0,1-3.05347,1.67285c-4.48291.44727-13.78051,2.18457-25.67993,8.7959A38.12461,38.12461,0,0,1,196.70269,526.93927Z" transform="translate(-143.39295 -208.67402)" style="fill: rgb(226, 84, 112);"/>
  <path d="M180.886,447.32061l-21.29064-5.77256a4.50507,4.50507,0,0,1-3.16561-5.52077l7.48456-27.6049a12.39859,12.39859,0,0,1,24.34642,3.92684l-1.70385,30.87614a4.49955,4.49955,0,0,1-5.67088,4.09525Z" transform="translate(-143.39295 -208.67402)" style="fill: rgb(226, 84, 112);"/>
  <circle cx="61.1934" cy="140.01002" r="24.56103" fill="#ffb8b8"/>
  <path d="M293.59007,396.93867a10.52582,10.52582,0,0,0-.23929,1.64013l-42.95745,24.782-10.44142-6.01094-11.13116,14.57228,22.33714,15.92056L300.1658,409.18a10.49579,10.49579,0,1,0-6.57573-12.24132Z" transform="translate(-143.39295 -208.67402)" fill="#ffb8b8"/>
  <path d="M246.83315,424.5566l-18.5043,12.00854a4.50508,4.50508,0,0,1-6.22447-1.32511l-15.57-23.9922A12.3986,12.3986,0,0,1,225.7025,395.7316l21.8634,21.86849a4.49956,4.49956,0,0,1-.73275,6.95651Z" transform="translate(-143.39295 -208.67402)" style="fill: rgb(226, 84, 112);"/>
  <path d="M187.20575,368.11561c4.582,4.88078,13.09132,2.26067,13.68835-4.40717a8.05557,8.05557,0,0,0-.01013-1.5557c-.30827-2.95357-2.01461-5.635-1.60588-8.7536a4.59057,4.59057,0,0,1,.84011-2.14891c3.65124-4.88934,12.22227,2.18687,15.6682-2.2393,2.113-2.714-.3708-6.98712,1.25066-10.0205,2.14005-4.00358,8.47881-2.0286,12.45387-4.22116,4.42275-2.43948,4.15822-9.22524,1.24686-13.35269-3.55052-5.03359-9.77572-7.71951-15.92335-8.10661s-12.25292,1.27475-17.9923,3.51145c-6.52108,2.54134-12.98768,6.05351-17.00066,11.78752-4.88022,6.97317-5.34986,16.34794-2.90917,24.50175C178.397,358.07074,183.46408,364.12993,187.20575,368.11561Z" transform="translate(-143.39295 -208.67402)" fill="#2f2e41"/>
</svg>