<svg xmlns:rdf="http://www.w3.org/1999/02/22-rdf-syntax-ns#" xmlns="http://www.w3.org/2000/svg" xmlns:cc="http://web.resource.org/cc/" xmlns:xlink="http://www.w3.org/1999/xlink" xmlns:dc="http://purl.org/dc/elements/1.1/" xmlns:svg="http://www.w3.org/2000/svg" xmlns:inkscape="http://www.inkscape.org/namespaces/inkscape" xmlns:sodipodi="http://sodipodi.sourceforge.net/DTD/sodipodi-0.dtd" xmlns:ns1="http://sozi.baierouge.fr" enable-background="new 0 0 526.084 505.232" xml:space="preserve" version="1.1" width="526.084" height="505.232" style=""><rect id="backgroundrect" width="100%" height="100%" x="0" y="0" fill="none" stroke="none"/>

<metadata><rdf:RDF><cc:Work><dc:format>image/svg+xml</dc:format><dc:type rdf:resource="http://purl.org/dc/dcmitype/StillImage"/><cc:license rdf:resource="http://creativecommons.org/licenses/publicdomain/"/><dc:publisher><cc:Agent rdf:about="http://openclipart.org/"><dc:title>Openclipart</dc:title></cc:Agent></dc:publisher><dc:title>hammering</dc:title><dc:date>2009-11-02T23:51:27</dc:date><dc:description>from "Wood-working Tools; How To USe Them - A Manual"\n\npublished by D.C.Heath &amp; Co. Publishers, 1896\n\nno author listed</dc:description><dc:source>https://openclipart.org/detail/28035/hammering-by-johnny_automatic</dc:source><dc:creator><cc:Agent><dc:title>johnny_automatic</dc:title></cc:Agent></dc:creator><dc:subject><rdf:Bag><rdf:li>externalsource</rdf:li><rdf:li>hammer</rdf:li><rdf:li>technique</rdf:li><rdf:li>tool</rdf:li><rdf:li>wood</rdf:li><rdf:li>working</rdf:li></rdf:Bag></dc:subject></cc:Work><cc:License rdf:about="http://creativecommons.org/licenses/publicdomain/"><cc:permits rdf:resource="http://creativecommons.org/ns#Reproduction"/><cc:permits rdf:resource="http://creativecommons.org/ns#Distribution"/><cc:permits rdf:resource="http://creativecommons.org/ns#DerivativeWorks"/></cc:License></rdf:RDF></metadata><g class="currentLayer" style=""><title>Layer 1</title><g clip-rule="evenodd" fill-rule="evenodd" id="svg_1" class="selected" fill="#ffffff" fill-opacity="1">
	<path d="m73.34010041809083,53.78090985107423 c1.625,1.6590000000000005 -1.6920000000000004,2.726 -1.538,4.615 c-4.788,-0.002000000000000001 -5.266,4.306 -6.1530000000000005,8.204 c-4.338,-5.598 4.386,-9.901 7.691,-12.819 z" id="svg_2" fill="#ffffff" fill-opacity="1"/>
	<path d="m104.10910041809082,74.80390985107422 c-0.4360000000000001,1.786 -2.527,1.917 -4.102,2.563 c-3.972,3.7190000000000003 -3.375,12.008 -11.793,11.281 c3.907,-2.075 7.559,-4.406 8.204,-9.742 c-1.1520000000000001,0.3480000000000002 -2.227,1.8820000000000001 -3.589,0.513 c3.18,-1.7770000000000001 8.28,-4.354 11.28,-4.615 z" id="svg_3" fill="#ffffff" fill-opacity="1"/>
	<path d="m113.84910041809081,87.62290985107421 c2.252,1.493 -2.566,3.4450000000000003 -2.051,0.513 c0.6800000000000004,-1.256 1.9100000000000001,0.5630000000000002 2.05,-0.513 z" id="svg_4" fill="#ffffff" fill-opacity="1"/>
	<path d="m109.22910041809082,89.16090985107422 c1.072,-0.21700000000000005 1.358,0.3520000000000001 2.051,0.513 c-0.06300000000000003,1.3050000000000002 -0.7470000000000002,1.9889999999999999 -2.051,2.051 c-0.9600000000000002,-0.978 0.3100000000000001,-0.928 0,-2.564 z" id="svg_5" fill="#ffffff" fill-opacity="1"/>
	<path d="m62.57210041809083,91.72490985107422 c1.137,-0.2820000000000001 0.7300000000000002,0.979 1.5390000000000001,1.025 c-0.20900000000000005,1.2770000000000001 -1.988,0.031000000000000014 -1.5390000000000001,-1.025 z" id="svg_6" fill="#ffffff" fill-opacity="1"/>
	<path d="m73.34010041809083,91.72490985107422 c1.7570000000000001,1.319 0.5950000000000002,5.558 4.102,5.127 c-0.522,2.6910000000000007 1.453,2.95 3.077,4.615 c-0.3040000000000001,1.577 -2.531,1.229 -3.589,2.051 c1.706,-4.549 -6.25,-7.941 -3.59,-11.793 z" id="svg_7" fill="#ffffff" fill-opacity="1"/>
	<path d="m109.22910041809082,93.26290985107421 c2.359,0.033000000000000015 4.083,0.7030000000000002 5.6400000000000015,1.538 c0.15700000000000006,1.183 -1.481,0.5700000000000002 -1.538,1.5390000000000001 c0.516,0.812 3.09,-0.6360000000000002 4.615,-0.513 c-0.908,3.947 -5.899,0.6330000000000002 -8.717,2.563 c-1.6900000000000004,-1.798 -0.4100000000000001,-2.947 0,-5.127 z" id="svg_8" fill="#ffffff" fill-opacity="1"/>
	<path d="m158.96910041809082,98.38990985107422 c3.547,0.042000000000000016 5.159,2.02 6.1530000000000005,4.615 c4.162,2.6750000000000007 8.465,5.209 13.844,6.666 c0.3380000000000002,1.939 -3.592,0.9610000000000002 -4.102,0.513 c-0.4470000000000001,1.9849999999999999 2.239,0.8380000000000002 1.5390000000000001,3.077 c-3.936,0.3590000000000001 -9.641,-2.023 -10.255,2.563 c-3.537,-1.7520000000000002 -3.321,-6.598 -4.615,-10.255 c-0.8500000000000002,-2.4050000000000002 -2.74,-4.616 -2.56,-7.178 z" id="svg_9" fill="#ffffff" fill-opacity="1"/>
	<path d="m177.42910041809083,106.59490985107422 c-4.473,-0.4840000000000001 -7.146,-2.7670000000000003 -10.255,-4.615 c-0.15700000000000006,-0.6220000000000002 1.481,-1.7680000000000002 1.5390000000000001,-0.513 c2.7600000000000002,1.8610000000000002 7.24,1.991 8.72,5.128 z" id="svg_10" fill="#ffffff" fill-opacity="1"/>
	<path d="m149.73910041809083,119.92290985107422 h1.026 v1.025 h-1.026 v-1.03 z" id="svg_11" fill="#ffffff" fill-opacity="1"/>
	<path d="m153.83910041809082,159.92290985107422 c2.827,-1.617 4.648,-4.24 7.691,-5.6400000000000015 c1.7000000000000002,3.8200000000000003 -3.67,7.51 -7.69,5.6400000000000015 z" id="svg_12" fill="#ffffff" fill-opacity="1"/>
	<path d="m97.43910041809082,186.07290985107423 c4.181,-0.797 9.159,3.35 13.332,4.102 c2.8760000000000003,0.519 4.704,-0.07700000000000003 6.1530000000000005,2.051 c-2.185,0.8670000000000002 -3.763,-0.11200000000000003 -6.1530000000000005,1.025 c-2.794,-1.043 -4.503,-3.909 -7.691,-5.127 c-1.73,-0.6600000000000003 -5.121,0.8700000000000002 -5.6400000000000015,-2.05 z" id="svg_13" fill="#ffffff" fill-opacity="1"/>
	<path d="m134.86910041809082,233.24290985107422 c-2.59,1.295 -3.237,-2.646 -4.102,-4.102 c-2.219,-3.7350000000000003 -3.81,-8.589 -6.666,-12.819 c-2.25,-3.332 -6.123,-6.7540000000000004 -9.743,-9.742 c-5.381,-4.442 -11.211,-7.415 -18.972,-5.127 c0.8490000000000002,-2.195 4.714,-2.107 6.666,-2.051 c6.776,0.19400000000000006 10.07,1.936 14.357,5.641 c7.78,6.72 14.36,18.85 18.46,28.2 z" id="svg_14" fill="#ffffff" fill-opacity="1"/>
	<path d="m98.97810041809082,205.04290985107423 c2.894,0.012000000000000004 4.47,1.3410000000000002 6.1530000000000005,2.563 c-1.78,0.92 -5.643,-0.4900000000000001 -6.151,-2.56 z" id="svg_15" fill="#ffffff" fill-opacity="1"/>
	<path d="m86.67210041809082,236.83290985107422 c-0.8600000000000002,2.826 -4.099,2.776 -6.1530000000000005,4.102 c-2.245,1.45 -3.851,4.683 -7.179,4.615 c3.459,-3.89 6.7540000000000004,-7.95 13.332,-8.72 z" id="svg_16" fill="#ffffff" fill-opacity="1"/>
	<path d="m141.5391004180908,280.9329098510742 c1.775,-0.3590000000000001 1.839,1.7970000000000002 1.025,2.563 c-1.05,-0.3700000000000001 -2.1,-1.54 -1.03,-2.56 z" id="svg_17" fill="#ffffff" fill-opacity="1"/>
	<path d="m44.62610041809082,296.3129098510742 c1.299,0.5810000000000002 1.488,2.2720000000000002 1.5390000000000001,4.103 c-1.806,-0.040000000000000015 -2.002,-3.38 -1.5390000000000001,-4.1 z" id="svg_18" fill="#ffffff" fill-opacity="1"/>
	<path d="m64.11110041809081,301.4429098510742 c1.064,0.516 1.4060000000000001,2.268 -0.513,2.051 c-0.21700000000000005,-1.07 0.3510000000000001,-1.36 0.513,-2.05 z" id="svg_19" fill="#ffffff" fill-opacity="1"/>
	<path d="m64.62310041809081,306.5729098510742 c1.064,0.515 1.4060000000000001,2.267 -0.513,2.051 c-0.21700000000000005,-1.08 0.3520000000000001,-1.36 0.513,-2.05 z" id="svg_20" fill="#ffffff" fill-opacity="1"/>
	<path d="m77.95510041809082,341.4329098510742 c-0.07700000000000003,1.275 -1.7360000000000002,0.14900000000000005 -2.051,0 c0.463,-1.71 1.146,-0.4400000000000001 2.051,0 z" id="svg_21" fill="#ffffff" fill-opacity="1"/>
	<path d="m76.92910041809083,343.4829098510742 c1.072,-0.21800000000000005 1.357,0.3520000000000001 2.051,0.513 c-0.09200000000000005,1.49 -2.4370000000000003,1.24 -2.051,-0.51 z" id="svg_22" fill="#ffffff" fill-opacity="1"/>
	<path d="m80.00610041809082,349.6429098510742 c1.119,-0.09300000000000005 1.6310000000000002,0.4200000000000001 1.5390000000000001,1.5390000000000001 c-0.4790000000000001,-0.55 -1.8920000000000003,-0.17 -1.5390000000000001,-1.54 z" id="svg_23" fill="#ffffff" fill-opacity="1"/>
	<path d="m84.10810041809081,354.7629098510742 c-1.6110000000000002,-0.09900000000000006 -2.465,-0.9530000000000002 -2.563,-2.563 c1.054,-0.91 3.128,0.28 2.563,2.56 z" id="svg_24" fill="#ffffff" fill-opacity="1"/>
	<path d="m328.68910041809085,365.02290985107425 c0.4160000000000001,0.09800000000000006 0.512,0.515 1.025,0.513 c-0.09700000000000006,0.4160000000000001 -0.514,0.512 -0.513,1.025 c-0.4150000000000001,-0.09700000000000006 -0.511,-0.514 -1.025,-0.513 c0.11000000000000003,-0.4100000000000001 0.52,-0.51 0.52,-1.02 z" id="svg_25" fill="#ffffff" fill-opacity="1"/>
	<path d="m90.77410041809082,367.0729098510742 c0.902,0.12400000000000003 1.169,0.8830000000000002 1.025,2.052 c-0.902,-0.12000000000000002 -1.169,-0.8800000000000002 -1.025,-2.05 z" id="svg_26" fill="#ffffff" fill-opacity="1"/>
	<path d="m91.79910041809082,370.15290985107424 c1.496,-0.7540000000000002 1.496,2.292 0,1.538 v-1.54 z" id="svg_27" fill="#ffffff" fill-opacity="1"/>
	<path d="m334.32910041809083,371.6929098510742 c-0.271,0.4120000000000001 -0.535,0.8320000000000002 -0.513,1.538 c-1.072,0.21700000000000005 -1.357,-0.3520000000000001 -2.051,-0.513 c0.3700000000000001,-1.05 1.54,-2.1 2.56,-1.03 z" id="svg_28" fill="#ffffff" fill-opacity="1"/>
	<path d="m331.25910041809084,372.2029098510742 c0.537,2.255 -2.291,2.6870000000000003 -3.077,2.051 c0.020000000000000007,-1.6900000000000004 1.46,-1.96 3.08,-2.05 z" id="svg_29" fill="#ffffff" fill-opacity="1"/>
	<path d="m92.82410041809082,372.71290985107424 c2.351,0.3400000000000002 -0.4110000000000001,3.1 0,0 z" id="svg_30" fill="#ffffff" fill-opacity="1"/>
	<path d="m325.6091004180908,374.2529098510742 h1.538 v1.538 h-1.538 v-1.54 z" id="svg_31" fill="#ffffff" fill-opacity="1"/>
	<path d="m321.50910041809084,376.8129098510742 c-1.55,1.9 -1.7200000000000002,-1.56 0,0 z" id="svg_32" fill="#ffffff" fill-opacity="1"/>
	<path d="m337.9191004180908,380.91290985107423 c-1.6440000000000001,3.483 -5.232,5.021 -10.255,5.128 c1.577,-2.525 5.6720000000000015,-2.533 7.179,-5.128 c-1.045,-1.177 -4.258,-0.18600000000000005 -6.1530000000000005,-0.513 c1.7200000000000002,-1.7400000000000002 8.42,-2.6900000000000004 9.22,0.51 z" id="svg_33" fill="#ffffff" fill-opacity="1"/>
	<path d="m313.81910041809084,379.8929098510742 c0.15400000000000005,1.351 -0.7100000000000002,1.6830000000000005 -2.052,1.538 c-0.15000000000000005,-1.35 0.7100000000000002,-1.6900000000000004 2.05,-1.54 z" id="svg_34" fill="#ffffff" fill-opacity="1"/>
	<path d="m327.1491004180908,380.91290985107423 c0.995,-0.203 0.7490000000000002,2.3360000000000003 -0.513,1.538 v-1.025 c0.4400000000000001,0.09000000000000004 0.4800000000000001,-0.2 0.51,-0.52 z" id="svg_35" fill="#ffffff" fill-opacity="1"/>
	<path d="m309.7191004180908,381.4329098510742 h1.025 v1.025 h-1.025 c-0.010000000000000004,-0.3400000000000002 -0.010000000000000004,-0.6800000000000004 -0.010000000000000004,-1.02 z" id="svg_36" fill="#ffffff" fill-opacity="1"/>
	<path d="m308.1791004180908,382.4529098510742 c-0.05900000000000002,1.822 -1.697,2.063 -3.589,2.051 c0.6400000000000002,-1.24 2.1,-1.6500000000000004 3.59,-2.05 z" id="svg_37" fill="#ffffff" fill-opacity="1"/>
	<path d="m303.0491004180908,385.02290985107425 c-0.4450000000000001,0.7500000000000002 -0.7680000000000002,1.625 -2.051,1.538 c-0.15000000000000005,-1.36 0.7100000000000002,-1.6900000000000004 2.05,-1.54 z" id="svg_38" fill="#ffffff" fill-opacity="1"/>
	<path d="m119.48910041809081,386.5529098510742 c-0.07700000000000003,1.275 -1.7360000000000002,0.14900000000000005 -2.051,0 c0.46,-1.71 1.15,-0.4400000000000001 2.05,0 z" id="svg_39" fill="#ffffff" fill-opacity="1"/>
	<path d="m118.97910041809082,388.09290985107424 c2.021,0.05100000000000002 2.517,4.2940000000000005 2.564,4.614 c-1.37,-1.01 -2.59,-2.19 -2.56,-4.61 z" id="svg_40" fill="#ffffff" fill-opacity="1"/>
	<path d="m329.7191004180908,388.6129098510742 h1.026 v1.538 h-1.5390000000000001 c-0.15000000000000005,-0.8300000000000002 0.4800000000000001,-0.8900000000000002 0.51,-1.54 z" id="svg_41" fill="#ffffff" fill-opacity="1"/>
	<path d="m336.37910041809084,389.1229098510742 c-1.55,1.8900000000000001 -1.73,-1.56 0,0 z" id="svg_42" fill="#ffffff" fill-opacity="1"/>
	<path d="m323.0491004180908,390.1429098510742 c1.56,-1.8900000000000001 1.73,1.56 0,0 z" id="svg_43" fill="#ffffff" fill-opacity="1"/>
	<path d="m315.3591004180908,390.1429098510742 h1.025 v1.025 h-1.025 c-0.010000000000000004,-0.3400000000000002 -0.010000000000000004,-0.6800000000000004 -0.010000000000000004,-1.03 z" id="svg_44" fill="#ffffff" fill-opacity="1"/>
	<path d="m317.9191004180908,390.66290985107423 c1.56,-1.9 1.73,1.55 0,0 z" id="svg_45" fill="#ffffff" fill-opacity="1"/>
	<path d="m126.6691004180908,390.66290985107423 c-0.07500000000000002,1.121 -1.292,1.102 -2.563,1.025 c-0.53,-1.73 1.59,-0.81 2.56,-1.03 z" id="svg_46" fill="#ffffff" fill-opacity="1"/>
	<path d="m104.61910041809082,391.1729098510742 c2.011,3.459 3.27,7.67 4.615,11.794 c0.9480000000000002,1.9580000000000002 3.3970000000000002,2.4130000000000003 3.589,5.127 c-5.795,0.3250000000000001 -3.5940000000000003,-7.345 -7.179,-9.229 c0.04300000000000002,-0.812 -0.24700000000000005,-1.956 0.513,-2.051 c-1.87,-1.48 -1.6800000000000004,-4.19 -1.53,-5.6400000000000015 z" id="svg_47" fill="#ffffff" fill-opacity="1"/>
	<path d="m330.7391004180908,393.7329098510742 h1.025 v1.025 h-1.025 c-0.010000000000000004,-0.3300000000000001 -0.010000000000000004,-0.6800000000000004 -0.010000000000000004,-1.02 z" id="svg_48" fill="#ffffff" fill-opacity="1"/>
	<path d="m330.7391004180908,396.8129098510742 c2.604,1.754 -3.241,2.545 -5.641,2.563 c0.27,-2.46 4.27,-1.2 5.6400000000000015,-2.56 z" id="svg_49" fill="#ffffff" fill-opacity="1"/>
	<path d="m308.1791004180908,398.35290985107423 c-1.55,1.8900000000000001 -1.73,-1.56 0,0 z" id="svg_50" fill="#ffffff" fill-opacity="1"/>
	<path d="m339.4591004180908,397.8329098510742 c0.14400000000000004,1.6440000000000001 -2.246,1.864 -3.077,1.025 c0.06000000000000002,-1.3 1.7200000000000002,-1.01 3.08,-1.02 z" id="svg_51" fill="#ffffff" fill-opacity="1"/>
	<path d="m321.50910041809084,398.8629098510742 c-1.55,1.9 -1.7200000000000002,-1.56 0,0 z" id="svg_52" fill="#ffffff" fill-opacity="1"/>
	<path d="m301.51910041809083,398.8629098510742 c0.517,1.542 -1.143,0.909 -2.051,1.025 c0.12000000000000002,-0.9 0.8800000000000002,-1.17 2.05,-1.03 z" id="svg_53" fill="#ffffff" fill-opacity="1"/>
	<path d="m315.3591004180908,399.3729098510742 h1.025 v1.538 h-1.538 c-0.15000000000000005,-0.8300000000000002 0.4800000000000001,-0.8800000000000002 0.51,-1.54 z" id="svg_54" fill="#ffffff" fill-opacity="1"/>
	<path d="m121.02910041809082,402.96290985107424 c1.959,0.9460000000000002 3.678,2.133 4.615,4.102 c-3.4,0.6800000000000004 -5.39,-2.26 -4.62,-4.1 z" id="svg_55" fill="#ffffff" fill-opacity="1"/>
	<path d="m340.4891004180908,405.0129098510742 c-0.538,3.6870000000000003 -6.458,1.972 -7.691,2.563 c1.23,-2.04 4.15,-1.81 7.69,-2.56 z" id="svg_56" fill="#ffffff" fill-opacity="1"/>
	<path d="m182.04910041809083,409.1129098510742 c-3.3120000000000003,-0.276 -6.904,-0.274 -9.742,-1.025 c0.3620000000000001,-1.461 3.192,-0.7450000000000002 5.127,-0.513 c1.57,0.19000000000000006 4.42,0.15000000000000005 4.61,1.53 z" id="svg_57" fill="#ffffff" fill-opacity="1"/>
	<path d="m186.65910041809082,408.60290985107423 c15.257,0.81 29.731,2.402 43.584,4.615 c-0.465,2.212 -2.996,0.551 -4.102,0.513 c-8.855,-0.3070000000000001 -17.542,-2.35 -26.15,-3.077 c-4.77,-0.3900000000000001 -10.41,1.07 -13.33,-2.04 z" id="svg_58" fill="#ffffff" fill-opacity="1"/>
	<path d="m325.6091004180908,409.6329098510742 c1.332,-0.3070000000000001 1.8450000000000002,0.20600000000000004 1.538,1.5390000000000001 c-0.4800000000000001,-0.55 -1.8900000000000001,-0.16000000000000006 -1.54,-1.54 z" id="svg_59" fill="#ffffff" fill-opacity="1"/>
	<path d="m302.5391004180908,412.1929098510742 h1.025 v1.025 h-1.025 c-0.010000000000000004,-0.3300000000000001 -0.010000000000000004,-0.6800000000000004 -0.010000000000000004,-1.02 z" id="svg_60" fill="#ffffff" fill-opacity="1"/>
	<path d="m304.5891004180908,413.22290985107423 c0.07300000000000002,-0.19800000000000006 1.085,-0.907 1.538,-0.513 c1.02,0.8800000000000002 -2.27,2.47 -1.54,0.51 z" id="svg_61" fill="#ffffff" fill-opacity="1"/>
	<path d="m307.1591004180908,413.7329098510742 h2.051 c0.517,1.542 -1.143,0.908 -2.051,1.025 v-1.02 z" id="svg_62" fill="#ffffff" fill-opacity="1"/>
	<path d="m310.2291004180908,415.27290985107425 c-0.203,-0.995 2.3360000000000003,-0.7490000000000002 1.538,0.513 h-1.025 c0.09000000000000004,-0.4300000000000001 -0.2,-0.4800000000000001 -0.52,-0.51 z" id="svg_63" fill="#ffffff" fill-opacity="1"/>
	<path d="m303.56910041809084,415.27290985107425 h1.026 c0.23900000000000005,1.094 -0.7330000000000002,0.977 -1.5390000000000001,1.025 c0.09000000000000004,-0.4100000000000001 0.51,-0.51 0.51,-1.02 z" id="svg_64" fill="#ffffff" fill-opacity="1"/>
	<path d="m318.94910041809084,416.8129098510742 h1.025 v1.025 h-1.025 v-1.02 z" id="svg_65" fill="#ffffff" fill-opacity="1"/>
	<path d="m334.8491004180908,416.8129098510742 h1.025 v1.538 h-1.538 c-0.14,-0.8300000000000002 0.4900000000000001,-0.8900000000000002 0.52,-1.54 z" id="svg_66" fill="#ffffff" fill-opacity="1"/>
	<path d="m325.0991004180908,417.3229098510742 c0.8280000000000002,-0.14500000000000005 0.8830000000000002,0.4840000000000001 1.538,0.513 c0.2,1 -2.33,0.7500000000000002 -1.54,-0.51 z" id="svg_67" fill="#ffffff" fill-opacity="1"/>
	<path d="m328.1791004180908,417.3229098510742 h1.025 v1.025 h-1.025 c-0.010000000000000004,-0.3500000000000001 -0.010000000000000004,-0.6900000000000004 -0.010000000000000004,-1.03 z" id="svg_68" fill="#ffffff" fill-opacity="1"/>
	<path d="m330.7391004180908,417.8329098510742 c0.11300000000000003,-0.21300000000000005 1.482,-0.988 2.051,-0.513 c0.79,0.6600000000000003 -2.93,2.16 -2.05,0.51 z" id="svg_69" fill="#ffffff" fill-opacity="1"/>
	<path d="m318.94910041809084,419.8829098510742 c-1.56,1.9 -1.73,-1.55 0,0 z" id="svg_70" fill="#ffffff" fill-opacity="1"/>
	<path d="m197.42910041809083,429.1129098510742 c-1.204,0.16300000000000006 -1.924,0.81 -3.589,0.513 c0.08000000000000003,-1.55 3.93,-3.02 3.59,-0.51 z" id="svg_71" fill="#ffffff" fill-opacity="1"/>
	<path d="m153.32910041809083,428.09290985107424 c0.10900000000000003,1.525 -1.8290000000000002,1.8090000000000002 -2.563,1.026 c0.07,-1.13 1.29,-1.11 2.56,-1.03 z" id="svg_72" fill="#ffffff" fill-opacity="1"/>
	<path d="m192.80910041809082,428.60290985107423 c0.6600000000000003,1.617 -4.249,1.617 -3.589,0 c0.92,0 2.99,-1.3800000000000001 3.59,0 z" id="svg_73" fill="#ffffff" fill-opacity="1"/>
	<path d="m155.37910041809081,428.60290985107423 h3.076 c-0.09000000000000004,1.48 -3.3,2.48 -3.08,0 z" id="svg_74" fill="#ffffff" fill-opacity="1"/>
	<path d="m162.55910041809082,428.60290985107423 c0.3590000000000001,1.774 -1.7970000000000002,1.839 -2.563,1.025 c0.4300000000000001,-0.7600000000000002 1.29,-1.11 2.56,-1.03 z" id="svg_75" fill="#ffffff" fill-opacity="1"/>
	<path d="m168.1991004180908,429.1129098510742 c0.4720000000000001,1.8880000000000003 -2.705,0.932 -3.077,0.513 c0.19000000000000006,-0.7300000000000002 2.62,-1.75 3.08,-0.51 z" id="svg_76" fill="#ffffff" fill-opacity="1"/>
	<path d="m172.29910041809083,428.60290985107423 c1.514,0.7390000000000002 -0.6110000000000002,2.064 -2.051,1.538 c-0.8200000000000002,-2.02 2.22,-0.18000000000000005 2.05,-1.54 z" id="svg_77" fill="#ffffff" fill-opacity="1"/>
	<path d="m178.4491004180908,428.60290985107423 c-0.21100000000000005,1.391 -2.438,2.115 -3.589,1.025 c0.08000000000000003,-1.47 2.15,-0.9400000000000002 3.59,-1.03 z" id="svg_78" fill="#ffffff" fill-opacity="1"/>
	<path d="m67.70010041809083,449.1129098510742 c-2.823,6.542 -14.606,5.844 -19.485,1.538 c3.094,-1.864 8.089,4.559 13.332,1.025 c0.6740000000000004,-2.94 3.706,-5.59 6.1530000000000005,-2.56 z" id="svg_79" fill="#ffffff" fill-opacity="1"/>
	<path d="m19.50110041809082,449.1129098510742 c6.521,1.512 11.089,4.977 16.408,7.691 c-0.6690000000000004,2.103 -3.38,0.3560000000000001 -4.615,0 c-4.087,-1.18 -9.752,-4.16 -11.793,-7.69 z" id="svg_80" fill="#ffffff" fill-opacity="1"/>
	<path d="m44.62610041809082,449.1129098510742 c1.072,-0.21800000000000005 1.358,0.3520000000000001 2.051,0.513 c0.16300000000000006,0.91 -2.873,0.92 -2.051,-0.51 z" id="svg_81" fill="#ffffff" fill-opacity="1"/>
	<path d="m74.36510041809082,450.65290985107424 c3.071,0.17600000000000005 2.7960000000000003,3.6980000000000004 5.6400000000000015,4.103 c-2.3850000000000002,3.14 -7.107,-1.7400000000000002 -5.6400000000000015,-4.1 z" id="svg_82" fill="#ffffff" fill-opacity="1"/>
	<path d="m200.49910041809082,487.0529098510742 c-2.21,1.8930000000000002 -7.52,0.6850000000000004 -11.28,1.025 c2.35,-1.49 8.79,-1.34 11.28,-1.02 z" id="svg_83" fill="#ffffff" fill-opacity="1"/>
	<path d="m210.24910041809082,488.0829098510742 c-2.306,-0.030000000000000013 -5.308,-0.3140000000000001 -8.717,-0.513 c1.36,-1.96 7.5600000000000005,-1.04 8.72,0.51 z" id="svg_84" fill="#ffffff" fill-opacity="1"/>
	<path d="m212.29910041809083,487.5729098510742 c6.816,-1.173 16.11,-0.3880000000000001 23.074,0 c-6.78,1.27 -17.68,0.19000000000000006 -23.07,0 z" id="svg_85" fill="#ffffff" fill-opacity="1"/>
	<path d="m247.67910041809083,487.5729098510742 c-2.98,0.794 -5.214,0.979 -7.691,0.513 c21.471,4.039 -2.354,-0.6800000000000004 -2.563,-0.513 c1.7530000000000001,-1.4020000000000001 5.301,1.4380000000000002 7.691,-0.513 c1.18,-0.17 1.96,0.08000000000000003 2.56,0.51 z" id="svg_86" fill="#ffffff" fill-opacity="1"/>
	<path d="m282.0291004180908,487.5729098510742 c-4.976,1.288 -12.395,1.316 -17.946,0.513 c1.367,-2.277 3.797,-0.512 5.6400000000000015,-0.513 c3.392,-0.0010000000000000005 6.683,-0.562 10.256,-0.513 c0.16000000000000006,0.6900000000000004 1.28,0.4200000000000001 2.05,0.51 z" id="svg_87" fill="#ffffff" fill-opacity="1"/>
	<path d="m187.68910041809082,488.59290985107424 c-1.871,-0.455 -2.731,0.906 -3.589,0 c0.6100000000000002,-0.3500000000000001 3.75,-2.11 3.59,0 z" id="svg_88" fill="#ffffff" fill-opacity="1"/>
	<path d="m248.69910041809078,488.0829098510742 c0.545,-1.163 3.223,-0.19400000000000006 4.615,-0.513 c-0.54,1.1600000000000001 -3.22,0.19000000000000006 -4.61,0.51 z" id="svg_89" fill="#ffffff" fill-opacity="1"/>
	<path d="m182.04910041809083,488.0829098510742 c0.19900000000000007,2.079 -3.195,0.5650000000000002 -4.615,1.025 c-0.2,-2.08 3.2,-0.5700000000000002 4.62,-1.03 z" id="svg_90" fill="#ffffff" fill-opacity="1"/>
	<path d="m162.55910041809082,489.1129098510742 c0.527,1.7240000000000002 -1.5950000000000002,0.799 -2.563,1.026 c0.4300000000000001,-0.77 1.6500000000000004,-0.7500000000000002 2.56,-1.03 z" id="svg_91" fill="#ffffff" fill-opacity="1"/>
	<path d="m305.6191004180908,489.1129098510742 h1.025 v1.026 h-1.025 c-0.010000000000000004,-0.3500000000000001 -0.010000000000000004,-0.6900000000000004 -0.010000000000000004,-1.03 z" id="svg_92" fill="#ffffff" fill-opacity="1"/>
	<path d="m313.3091004180908,489.1129098510742 c0.4910000000000001,2.21 -3.241,1.7360000000000002 -4.103,1.026 c0.52,-1.19 2.36,-1.07 4.1,-1.03 z" id="svg_93" fill="#ffffff" fill-opacity="1"/>
	<path d="m339.4591004180908,489.6229098510742 c-3.66,1.98 -10.654,0.6270000000000002 -15.896,1.025 c0.544,-1.8880000000000003 3.701,-0.979 5.6400000000000015,-1.025 c3.85,-0.1 7.66,-0.16000000000000006 10.26,-0.010000000000000004 z" id="svg_94" fill="#ffffff" fill-opacity="1"/>
	<path d="m354.32910041809083,489.6229098510742 c-1.904,3.17 -8.606,-0.07100000000000002 -13.331,1.025 c2.95,-3.05 8.69,-0.5800000000000002 13.33,-1.03 z" id="svg_95" fill="#ffffff" fill-opacity="1"/>
	<path d="m148.71910041809082,490.1329098510742 c1.045,-1.177 4.258,-0.18600000000000005 6.1530000000000005,-0.513 c-0.6600000000000003,1.46 -4.84,1.33 -6.15,0.51 z" id="svg_96" fill="#ffffff" fill-opacity="1"/>
	<path d="m13.861100418090821,491.6729098510742 c-1.983,0.274 -2.503,-0.915 -4.615,-0.513 c0.503,-1.19 3.964,-1.51 4.615,0.51 z" id="svg_97" fill="#ffffff" fill-opacity="1"/>
	<path d="m61.54710041809082,490.1329098510742 h3.077 c0.4850000000000001,1.8530000000000002 -2.02,0.7150000000000002 -3.077,1.025 v-1.02 z" id="svg_98" fill="#ffffff" fill-opacity="1"/>
	<path d="m76.92910041809083,490.1329098510742 c-1.995,1.901 -5.852,-0.4880000000000001 -8.717,1.025 c1.137,-2.1 5.954,-0.54 8.717,-1.02 z" id="svg_99" fill="#ffffff" fill-opacity="1"/>
	<path d="m89.23610041809081,490.1329098510742 c1.029,-0.17500000000000004 1.604,0.10400000000000002 1.538,1.025 h-1.538 v-1.02 z" id="svg_100" fill="#ffffff" fill-opacity="1"/>
	<path d="m34.37110041809082,491.16290985107423 c-4.288,1.968 -13.848,1.052 -18.972,0.513 c0.5680000000000002,-1.945 3.887,-0.030000000000000013 5.6400000000000015,0 c3.827,-0.79 8.776,-0.46 13.332,-0.51 z" id="svg_101" fill="#ffffff" fill-opacity="1"/>
	<path d="m45.65210041809082,491.16290985107423 c0.3890000000000001,-0.8480000000000002 4.225,-0.8480000000000002 4.615,0 c-2.383,-0.3000000000000001 -3.096,0.7000000000000002 -4.615,0 z" id="svg_102" fill="#ffffff" fill-opacity="1"/>
	<path d="m95.38810041809081,491.16290985107423 c1.3820000000000001,-1.182 4.945,-0.18300000000000005 7.179,-0.513 c-0.7500000000000002,1.9300000000000002 -5.584,0.93 -7.181,0.51 z" id="svg_103" fill="#ffffff" fill-opacity="1"/>
	<path d="m122.0491004180908,491.16290985107423 c0.21700000000000005,0.562 -5.557,1.735 -7.179,0.513 c1.71,-1.9100000000000001 4.06,-0.020000000000000007 7.18,-0.51 z" id="svg_104" fill="#ffffff" fill-opacity="1"/>
	<path d="m259.9791004180908,494.75290985107426 c-0.8290000000000002,1.911 -4.494,0.9420000000000002 -7.179,1.025 c-2.67,0.08300000000000003 -5.434,0.3730000000000001 -6.666,0 c3.5300000000000002,-2.08 9.08,0.2900000000000001 13.85,-1.02 z" id="svg_105" fill="#ffffff" fill-opacity="1"/>
	<path d="m241.51910041809083,496.28290985107424 c-11.667,2.212 -23.284,0.4480000000000001 -34.867,1.025 c-11.596,0.5780000000000002 -23.385,2.333 -34.354,2.052 c-0.915,-0.023000000000000013 -3.7600000000000002,0.8680000000000002 -4.102,-1.025 c22.976,-1.995 45.614,-1.211 67.17,-2.564 c1.59,-0.1 4.83,-1.81 6.15,0.51 z" id="svg_106" fill="#ffffff" fill-opacity="1"/>
	<path d="m242.54910041809083,495.26290985107426 c0.8280000000000002,-0.14500000000000005 0.8830000000000002,0.4840000000000001 1.538,0.513 c0.2,1 -2.34,0.7500000000000002 -1.54,-0.51 z" id="svg_107" fill="#ffffff" fill-opacity="1"/>
	<path d="m358.94910041809084,496.28290985107424 c-1.13,1.57 -3.29,-0.5900000000000002 0,0 z" id="svg_108" fill="#ffffff" fill-opacity="1"/>
	<path d="m79.49310041809082,499.36290985107416 h-7.178 c0.9660000000000002,-2 5.961,-1.7400000000000002 7.178,0 z" id="svg_109" fill="#ffffff" fill-opacity="1"/>
	<path d="m339.9691004180908,497.8229098510742 h1.025 v1.026 h-1.025 v-1.03 z" id="svg_110" fill="#ffffff" fill-opacity="1"/>
	<path d="m18.98810041809082,498.8529098510742 c-1.374,2.097 -6.943,0.785 -9.229,0.513 c2.167,-2.13 5.556,0.11000000000000003 9.229,-0.51 z" id="svg_111" fill="#ffffff" fill-opacity="1"/>
	<path d="m56.93210041809081,498.3329098510742 c-7.742,2.745 -16.854,0.9500000000000002 -26.663,1.538 c3.511,-1.795 8.495,-1.6400000000000001 12.306000000000001,-1.025 c3.888,-1.07 9.649000000000001,-0.27 14.357,-0.52 z" id="svg_112" fill="#ffffff" fill-opacity="1"/>
	<path d="m61.034100418090816,498.3329098510742 h1.025 v1.025 h-1.025 v-1.02 z" id="svg_113" fill="#ffffff" fill-opacity="1"/>
	<path d="m302.0291004180908,498.8529098510742 c-1.302,2.378 -4.361,0.46 -6.666,0.513 c-5.282,0.12100000000000002 -11.516,1.27 -15.895,0.513 c6.29,-2.8600000000000003 14.93,-0.8700000000000002 22.56,-1.02 z" id="svg_114" fill="#ffffff" fill-opacity="1"/>
	<path d="m20.52710041809082,498.8529098510742 h7.691 c-0.538,1.51 -7.204,1.79 -7.691,0 z" id="svg_115" fill="#ffffff" fill-opacity="1"/>
	<path d="m158.45910041809083,498.8529098510742 c-2.441,2.733 -10.912,1.068 -16.408,1.538 c3.41,-2.58 12.15,0.18000000000000005 16.41,-1.54 z" id="svg_116" fill="#ffffff" fill-opacity="1"/>
	<path d="m141.01910041809083,500.39290985107414 c-6.268,-0.133 -13.702,0.19800000000000006 -18.459,0 c3.48,-0.918 9.143,-1.229 14.357,-1.025 c1.3,0.040000000000000015 3.92,-0.8500000000000002 4.1,1.02 z" id="svg_117" fill="#ffffff" fill-opacity="1"/>
	<path d="m120.50910041809084,499.87290985107416 c-2.891,1.8880000000000003 -9.604,0.9500000000000002 -12.819,1.025 c2.38,-2.23 8.78,-0.4400000000000001 12.82,-1.02 z" id="svg_118" fill="#ffffff" fill-opacity="1"/>
	<path d="m121.53910041809081,161.9729098510742 c-0.7390000000000002,0.11600000000000003 -0.17900000000000005,1.53 -1.025,1.538 c-2.376,0.3250000000000001 -1.299,-2.803 -1.5390000000000001,-4.615 c-1.192,0.3460000000000002 -0.3860000000000001,2.6900000000000004 -2.563,2.051 c-0.548,-1.916 1.2730000000000001,-1.462 1.025,-3.077 c1.61,-0.259 2.095,1.208 2.564,-0.513 c2.813,3.51 4.683,7.965 7.691,11.28 c-1.7650000000000001,0.4760000000000001 -1.794,1.949 0,2.564 c-1.163,0.794 -3.236,-1.871 -4.615,-2.564 c-0.022000000000000013,-0.8770000000000002 0.3810000000000001,-1.328 1.026,-1.538 c-0.19200000000000006,-1.6880000000000004 -2.726,-1.034 -2.564,-3.077 c1.019,-0.8540000000000002 0.6520000000000002,0.04600000000000002 2.051,0 c0.24000000000000005,-1.6 -1.29,-1.44 -2.05,-2.04 z" id="svg_119" fill="#ffffff" fill-opacity="1"/>
	<path d="m98.97810041809082,253.24290985107422 c0.517,1.135 1.7650000000000001,-1.263 3.589,-0.513 c-2.223,2.9050000000000002 -6.742,3.513 -11.793,3.589 c4.609,-1.625 9.336,-8.109 14.870000000000001,-9.23 c2.123,-0.4300000000000001 4.974,0.22500000000000006 7.691,0 c7.303,-0.6040000000000002 13.384,-2.056 19.485,0.513 c3.428,-2.85 -0.461,-5.582 0.513,-8.717 c2.875,0.2920000000000001 3.963,3.8680000000000003 5.127,6.1530000000000005 c1.3010000000000002,2.5540000000000003 1.6550000000000002,5.689 4.615,6.666 c0.23800000000000004,-4.303 -0.4090000000000001,-8.773 -1.538,-13.332 c-0.6220000000000002,-2.51 -2.398,-4.745 -3.077,-7.178 c-0.7660000000000002,-2.75 -0.22400000000000006,-6.073 -1.025,-8.717 c-2.283,-7.53 -8.923,-12.734 -13.845,-16.921 c-0.09500000000000006,-5.253 -5.723,-7.542 -5.6400000000000015,-11.281 c3.865,2.972 7.952,5.721 9.742,10.768 c3.305,1.9460000000000002 5.049,4.465 7.691,8.204 c1.176,1.6630000000000005 2.924,3.656 3.589,5.127 c1.6620000000000004,3.6740000000000004 0.935,8.267 2.051,12.306000000000001 c0.5990000000000002,2.164 2.56,3.934 3.077,6.1530000000000005 c1.175,5.048 -0.15100000000000005,10.335 3.077,14.357 c-0.23500000000000001,1.816 -1.141,2.9610000000000003 -1.025,5.128 c0.4800000000000001,2.596 3.532,2.621 4.615,4.614 c2.367,9.908 -0.79,18.604 -3.077,26.663 c0.15700000000000006,1.553 1.586,1.832 1.025,4.103 c-2.277,3.534 -3.3970000000000002,8.225 -6.1530000000000005,11.28 c0.6550000000000002,2.396 0.21900000000000006,7.817 -1.5390000000000001,7.691 c1.516,6.096 0.011000000000000006,12.076 0.513,18.459 c0.07900000000000003,1.005 0.998,2.438 1.025,3.59 c0.133,5.6690000000000005 -1.665,11.313 -2.051,16.407 c-0.4420000000000001,5.8260000000000005 -0.3370000000000002,11.318 3.077,14.357 c0.4200000000000001,1.46 3.708,0.05200000000000002 3.589,2.051 c-1.229,2.145 -4.259,0.8710000000000002 -6.1530000000000005,0.513 c-2.109,-0.3980000000000002 -3.676,-1.913 -5.127,-1.538 c0.3230000000000001,-4.581 -1.6270000000000002,-9.493 -1.025,-14.870000000000001 c0.3450000000000002,-3.078 1.794,-6.63 2.564,-9.742 c4.543,-18.379 0.5690000000000002,-44.185 -3.589,-61.53 c-1.485,-1.42 -3.008,-2.803 -4.615,-4.102 c-7.683,-0.6860000000000004 -16.256,-0.4690000000000001 -23.587,1.538 c-5.885,1.6110000000000002 -13.096,4.998 -19.484,6.1530000000000005 c-3.505,0.6330000000000002 -6.611,0.19800000000000006 -9.229,1.025 c-2.728,0.8610000000000002 -5.6400000000000015,3.603 -8.717,5.6400000000000015 c-2.232,1.479 -5.203,2.046 -5.641,3.59 c-0.6220000000000002,2.194 0.3730000000000001,4.511 2.051,5.641 c-1.573,0.8190000000000002 -1.794,2.991 -1.538,5.6400000000000015 c-0.136,2.4 1.9889999999999999,-0.6650000000000003 2.051,1.538 c0.277,2.604 -1.816,0.010000000000000004 -1.538,2.052 c-0.3850000000000001,2.094 1.092,2.325 2.051,3.076 c0.797,1.822 -1.742,0.3100000000000001 -1.538,1.538 c0.06200000000000002,2.203 2.187,-0.8620000000000002 2.051,1.538 c0.4470000000000001,1.779 -0.789,1.7600000000000002 -1.538,1.025 c-0.3540000000000001,2.869 2.159,-0.3140000000000001 2.051,2.052 c0.4480000000000001,1.778 -0.789,1.7590000000000003 -1.538,1.025 c-0.3900000000000001,1.929 2.723,0.3540000000000001 2.051,2.563 c0.3540000000000001,1.706 -1.06,0.8260000000000002 -1.538,0.513 c4.2780000000000005,3.388 3.214,15.701 8.717,19.484 c-2.324,3.476 4.729,11.682 6.1530000000000005,15.896 c-1.072,0.21700000000000005 -1.358,-0.3520000000000001 -2.051,-0.513 c4.83,13.075 8.724,24.628 14.357,38.457 c1.476,3.623 3.633,7.056 5.128,10.768 c2.916,7.241 5.958,16.082 12.306000000000001,19.484 c3.503,1.8780000000000001 9.994,3.244 15.383000000000001,4.102 c17.311,2.757 36.004,4.571 55.377,2.564 c0.23800000000000004,-0.9560000000000002 -1.8650000000000002,-1.7200000000000002 1.025,-2.564 c2.145,-0.19300000000000006 0.56,1.864 0,2.052 h3.589 c0.25,-0.279 -1.24,-2.142 1.538,-2.052 c2.145,-0.19300000000000006 0.56,1.864 0,2.052 c3.503,0.786 6.159,0.3340000000000002 10.255,0 c1.7770000000000001,-0.10400000000000002 0.7340000000000002,-3.026 3.589,-2.052 c2.395,0.035 -0.6000000000000002,1.173 -0.513,2.052 c0.81,-0.916 6.268,-3.957 5.127,-0.513 c2.532,-0.3740000000000001 3.128,-2.684 6.1530000000000005,-2.564 c1.03,1.046 -0.22700000000000006,1.006 -0.513,2.052 c1.823,-0.5690000000000002 2.441,-2.345 4.615,-2.564 c2.093,-0.15500000000000005 0.274,1.07 0.513,2.052 c2.007,-1.07 3.084,-3.069 6.1530000000000005,-3.077 c0.5740000000000002,0.7380000000000002 0.553,1.251 -0.513,1.538 c1.09,0.8900000000000002 2.243,-2.521 4.615,-2.051 c1.706,-0.3540000000000001 0.8260000000000002,1.061 0.513,1.538 c1.26,-1.1360000000000001 5.427,-3.447 5.641,-1.025 c1.85,0.14100000000000001 1.391,-2.027 3.076,-2.051 c1.613,-0.5870000000000002 1.246,0.805 2.051,1.025 c1.8330000000000002,-0.7600000000000002 4.056,-3.547 6.1530000000000005,-1.025 c0.4860000000000001,-1.052 1.6550000000000002,-1.421 2.564,-2.051 c0.909,0.11600000000000003 2.567,-0.517 2.051,1.025 c1.466,-2.347 4.1370000000000005,-1.22 7.179,-1.538 c1.29,-0.136 2.243,-1.4460000000000002 3.077,-1.5390000000000001 c4.815,-0.534 10.014,0.3140000000000001 14.357,-0.513 c-10.536,-3.485 -22.863,-3.2 -34.867,-4.102 c-2.209,-0.16600000000000006 -5.948,1.247 -7.691,-1.538 c13.865,0.021000000000000008 30.351,0.4300000000000001 45.122,2.051 c-0.131,1.064 -2.253,0.14 -2.563,1.025 c1.814,1.792 4.877,2.015 7.691,1.538 c-0.6760000000000004,-1.375 -3.251,-0.8520000000000002 -4.615,-1.538 c1.033,-0.921 6.595,-0.9430000000000002 9.742,-0.513 c7.84,1.072 15.105,6.289 23.587,6.1530000000000005 c0.07200000000000002,2.123 -3.567,0.534 -5.127,1.025 c2.473,1.484 7.079,0.9610000000000002 9.742,-0.513 c8.576,0.07900000000000003 17.488,-0.21200000000000005 24.099,0.513 c1.076,-3.8810000000000002 0.528,-9.386 1.5390000000000001,-13.332 c2.242,0.795 5.698,3.638 8.204,1.025 c-0.6870000000000004,-7.176 -6.384,-9.341 -7.179,-16.407 c3.6950000000000003,0.027000000000000014 5.335,5.182 9.229,5.6400000000000015 c9.226,1.085 6.032,-8.865 2.051,-12.306000000000001 c-1.8860000000000001,-1.6300000000000003 -5.145,-2.54 -7.179,-4.615 c-1.6340000000000003,-1.6660000000000004 -1.6760000000000004,-3.734 -2.563,-5.127 c-0.4730000000000001,-0.7420000000000002 -3.803,-2.263 -2.563,-4.103 c2.101,-0.05000000000000002 2.329,1.7730000000000001 3.076,3.077 c5.405,2.114 9.292,5.748 14.870000000000001,7.69 c3.004,-1.713 5.704,-6.494 3.076,-10.768 c-2.062,-2.033 -4.699,-3.488 -7.691,-5.127 c-4.346,-2.3810000000000002 -7.9030000000000005,-3.606 -13.844,-5.128 c-2.7960000000000003,-0.7160000000000002 -4.517,-1.786 -7.691,-1.025 c-6.051,1.449 -12.39,4.93 -18.459,6.1530000000000005 c2.748,-3.4050000000000002 7.5760000000000005,-4.729 12.306000000000001,-6.1530000000000005 c-3.201,-0.24800000000000005 -6.702,0.8990000000000002 -9.742,2.051 c-5.017,1.9 -11.217,4.866 -15.383000000000001,7.691 c-1.328,0.9 -2.723,1.469 -3.076,3.076 c-4.6400000000000015,-0.4790000000000001 -7.523,3.9290000000000003 -11.281,5.128 c-7.214,2.302 -19.534,0.6690000000000004 -28.201,1.025 c-8.873,0.3640000000000001 -17.992,1.171 -26.663,0.513 c-4.421,-0.3350000000000002 -7.793,-1.074 -13.332,-1.538 c-10.285,-0.8620000000000002 -18.801,-5.742 -28.201,-7.179 c-5.439,-0.8310000000000002 -8.405,-0.2910000000000001 -13.845,-1.025 c-4.456,-0.6020000000000002 -8.604,-2.3120000000000003 -12.818,-3.076 c-3.6990000000000007,-0.6710000000000004 -8.543,0.53 -10.768,-3.077 c7.709,-0.793 16.238,1.8210000000000002 23.586,3.077 c-1.982,-8.443 -0.23900000000000005,-20.613 -4.102,-27.176 c0.458,-6.713 -2.903,-12.435 -3.077,-18.973 c-0.06300000000000003,-2.365 0.6240000000000002,-4.722 0.513,-7.178 c-0.256,-5.6610000000000005 -1.838,-10.358 -2.564,-16.921 c-0.24400000000000005,-2.212 -1.629,-4.01 -2.051,-6.1530000000000005 c-0.3960000000000002,-2.014 0.271,-4.13 0,-6.1530000000000005 c-0.19400000000000006,-1.448 -1.251,-3.044 -1.538,-4.614 c-0.8770000000000002,-4.796 -1.476,-10.083 -2.564,-14.870000000000001 c-1.453,-6.396 -4.079,-12.073 -5.6400000000000015,-17.946 c1.071,-0.21700000000000005 1.357,0.3520000000000001 2.051,0.513 c0.12300000000000003,-2.721 -1.904,-0.11100000000000003 -3.077,-1.538 c-2.327,-4.474 -3.015,-9.245 -4.615,-13.845 c-4.498,-12.934 -12.717,-23.229 -20.51,-32.816 c-0.15200000000000005,-1.3490000000000002 1.9889999999999999,-0.404 1.538,-2.051 c-2.079,-5.228 -6.384,-9.851 -10.768,-14.870000000000001 c-9.736,-11.146 -19.609,-22.52 -32.816,-31.278 c-5.952,-3.947 -8.908,-3.8810000000000002 -16.408,-7.691 c-2.625,-1.334 -5.786,-4.168 -8.204,-3.589 c-4.655,1.115 -2.569,7.846 -2.051,10.768 c-2.263,-0.21200000000000005 -3.963,0.139 -5.127,1.025 c-3.91,3.6100000000000003 -4.643,10.398 -10.255,12.306000000000001 c-5.146,7.543 -10.99,14.611 -16.408,22.048 c-5.507,7.559 -8.237,16.356 -13.332,24.612000000000002 c-1.8860000000000001,7.373 -3.493,15.022 -6.1530000000000005,23.074 c-1.2970000000000002,3.925 -1.251,7.293 -2.051,11.28 c-0.8710000000000002,4.344 -0.93,11.972 -1.5390000000000001,18.459 c-0.4360000000000001,4.644 -0.6010000000000002,8.247 0,14.870000000000001 c0.7140000000000002,7.877 3.115,16.131 3.077,24.099 c-0.04400000000000002,9.133 4.557,16.854 5.6400000000000015,24.612000000000002 c1.052,7.532 2.9130000000000003,13.647 5.641,19.484 c-1.932,5.525 2.211,11.401 3.076,17.434 c0.21900000000000006,1.526 -0.3260000000000001,3.299 0,4.615 c0.7660000000000002,3.093 3.177,4.943 4.102,7.691 c1.2890000000000001,3.826 0.6050000000000002,8.333 1.025,13.331 c0.6670000000000003,7.928 3.874,15.376 6.1530000000000005,22.049 c5.817,1.266 7.124,4.977 14.357,5.6400000000000015 c2.997,0.275 7.719,-1.999 9.229,2.052 c-2.417,1.496 -5.038,-0.6020000000000002 -7.178,-1.025 c-5.335,0.467 -13.845,0.3540000000000001 -16.408,-3.59 c-1.912,0.14 -0.7050000000000002,3.3970000000000002 -3.589,2.563 c-1.979,-4.616 -1.251,-9.617 -2.564,-14.356 c-1.844,-6.658 -6.483,-13.304 -3.076,-21.023 c-1.578,-2.183 -1.5350000000000001,-5.985 -3.589,-7.69 c-1.292,-5.276 -1.8370000000000002,-11.748 -3.589,-16.921 c-1.005,-2.967 -1.951,-7.314 -3.077,-11.794 c-1.111,-4.42 -1.953,-8.121 -3.076,-13.844 c-2.208,-11.248 -6.392,-22.433 -7.179,-34.867 c-0.20700000000000005,-3.266 0.4270000000000001,-6.665 0,-10.256 c-0.23700000000000004,-1.991 -1.7670000000000003,-4.684 -2.051,-7.178 c-0.5,-4.381 0.6910000000000004,-8.634 0.513,-12.819 c-0.3010000000000001,-7.046 -1.311,-15.882 0.513,-24.612000000000002 c0.22600000000000006,-1.082 1.271,-2 1.538,-3.077 c0.4440000000000001,-1.791 0.12300000000000003,-3.915 0.513,-5.6400000000000015 c0.45,-1.987 1.79,-3.6830000000000007 2.051,-5.641 c0.19100000000000006,-1.433 -0.3220000000000001,-3.209 0,-4.615 c1.043,-4.552 4.496,-10.267 6.666,-15.382 c1.7570000000000001,-4.143 3.25,-7.976 5.127,-11.793 c1.427,-2.902 3.011,-4.078 4.615,-6.666 c2.098,-3.384 2.9450000000000003,-6.854 5.128,-9.742 c3.878,-5.13 8.646,-10.161 13.332,-15.382 c2.252,-2.51 5.501,-4.466 7.178,-7.179 c0.931,-1.505 0.6640000000000003,-3.614 1.5390000000000001,-5.127 c1.28,-2.214 4.29,-3.71 5.6400000000000015,-6.1530000000000005 c0.781,-1.413 0.467,-3.37 1.025,-4.614 c1.7560000000000002,-3.917 6.161,-5.562 7.691,-9.743 c-0.23500000000000001,-8.758000000000001 0.8740000000000002,-16.729 0.513,-23.074 c-0.3930000000000001,-2.684 -3.446,-2.707 -5.127,-4.102 c-1.6980000000000004,-3.942 -3.537,-7.744 -5.127,-11.793 c1.485,-3.623 -1.213,-6.34 -1.5390000000000001,-9.229 c-0.19400000000000006,-1.729 0.6780000000000004,-4.196 0.513,-6.666 c-0.2960000000000001,-4.43 -2.047,-8.234 -1.026,-11.281 c0.6190000000000002,-1.847 3.052,-2.744 4.102,-4.615 c1.509,-2.6870000000000003 1.354,-6.538 2.564,-9.229 c1.106,-2.46 3.501,-4.596 5.127,-6.666 c0.07400000000000002,-5.054 3.052,-7.203 6.1530000000000005,-9.229 c2.559,-9.046 11.467,-12.235 20.51,-16.408 c0.793,-0.3660000000000001 1.823,-0.6010000000000002 2.564,-1.025 c2.501,-1.433 6.456,-2.039 10.255,-3.589 c1.296,-0.529 2.386,-1.625 3.589,-2.051 c1.875,-0.6650000000000003 3.914,-0.452 5.6400000000000015,-1.025 c1.722,-0.5720000000000002 2.843,-2.1390000000000002 4.102,-2.564 c5.031,-1.7000000000000002 10.835,0.3590000000000001 15.383000000000001,1.025 c1.075,0.15800000000000006 2.365,-0.5980000000000002 3.589,-0.513 c2.114,0.14700000000000005 4.487,1.79 6.666,2.051 c3.6020000000000003,0.4310000000000001 7.245,-0.551 10.255,0.513 c2.753,0.973 5.484,3.606 6.666,7.178 c1.905,-0.51 1.34,-1.095 3.589,-0.513 c2.77,2.187 6.128,3.785 8.204,6.666 c10.621,2.7110000000000003 17.262,9.4 19.484,20.51 c4.875,5.731 7.734,12.355 7.179,19.997 c-0.133,1.836 -1.1280000000000001,3.577 -1.5390000000000001,5.641 c-0.3940000000000002,1.982 -0.131,4.179 -0.513,6.1530000000000005 c-1.625,8.403 -4.8420000000000005,16.313 -7.691,25.125 c-0.7680000000000002,2.375 -2.278,5.344 -2.564,7.178 c-0.6950000000000004,4.454 0.4170000000000001,9.832 1.025,13.845 c0.6700000000000004,4.414 3.133,9.273 2.564,13.331 c-0.6210000000000002,4.428 -6.019,8.402 -12.306000000000001,5.641 c-2.483,5.892 -3.96,12.79 -11.281,13.844 c-2.5940000000000003,4.906 -2.394,10.844 -4.615,15.382 c-1.971,4.028 -6.027,6.621 -7.178,10.768 c-5.164,0.8180000000000002 -10.438,1.5270000000000001 -16.408,1.538 c3.222,7.328 1.051,15.313 4.102,23.587 c1.745,4.7330000000000005 5.312,8.761 7.691,12.819 c2.574,4.389 5.5280000000000005,8.779 7.178,13.332 c1.146,3.159 1.375,6.6400000000000015 2.564,9.742 c1.143,2.982 2.528,5.7330000000000005 3.589,8.717 c2.23,6.27 2.465,12.646 4.102,19.998 c1.086,4.876 3.011,12.913 4.615,19.484 c1.133,4.646 1.838,10.367 3.589,16.408 c0.07900000000000003,1.275 -0.805,1.5870000000000002 -1.025,2.563 c0.511,0.6860000000000004 1.3860000000000001,1.007 1.5390000000000001,2.051 c1.6980000000000004,18.129 5.365,34.288 5.127,54.353 c2.668,2.503 6.062,2.047 11.28,2.563 c8.082,0.8 15.744,4.663 22.561,6.1530000000000005 c17.932,0.4290000000000001 41.781,1.6880000000000004 62.043,1.025 c12.354,-0.404 21.056,-8.455 29.74,-13.332 c4.77,-2.6790000000000003 10.223,-5.228 15.383000000000001,-6.665 c3.302,-0.921 6.675,-0.15700000000000006 9.742,-2.564 c3.75,1.03 5.144,-2.504 7.691,-1.025 c15.702,-24.121 30.573,-49.074 45.635,-73.836 c-0.2880000000000001,-6.44 2.9530000000000003,-9.353 4.102,-14.357 c-9.683,-5.6690000000000005 -22.288,-0.4790000000000001 -28.201,5.128 c-1.5510000000000002,-0.3300000000000001 -2.959,-0.802 -3.076,-2.564 c-2.051,1.064 -3.985,-0.23600000000000004 -5.641,-1.025 c3.234,-6.388 9.895,-10.093 17.434,-13.332 c4.695,-2.017 7.889,-4.08 13.332,-4.615 c22.632,-2.223 36.362,15.222 48.198,25.125 c3.3890000000000002,-0.456 8.079,1.456 8.717,4.102 c1.032,4.277 -6.77,12.979 -9.229,14.870000000000001 c-3.6340000000000003,-1.494 -7.948,-2.307 -8.204,-7.179 c-4.827,-2.18 -10.314,-3.7 -14.870000000000001,-6.152 c-3.542,0.56 -4.14,4.063 -7.178,5.127 c-15.14,26.053 -29.604,52.779 -43.584,79.989 c1.746,3.3850000000000002 8.656,6.7650000000000015 8.717,12.307 c0.049000000000000016,4.535 -3.524,9.048 -10.256,8.204 c0.3650000000000001,2.7600000000000002 3.218,3.478 3.59,6.666 c0.6150000000000002,5.273 -3.33,11.437 -10.255,10.255 c3.746,6.108 -1.082,11.556000000000001 -6.666,12.818 c1.473,9.267 -8.679,13.343 -17.946,11.794 c-2.529,2.428 -3.265,6.648 -6.1530000000000005,8.717 c-10.538,0.454 -16.621,-3.548 -19.997,-10.256 c-8.607,-3.5 -20.796,-5.521 -32.304,-4.614 c-24.549,1.932 -49.399,11.531 -75.887,11.28 c-3.275,-0.031000000000000014 -4.942,-1.584 -7.691,0 c-0.4230000000000001,7.6930000000000005 -2.778,14.33 -3.589,21.536 c-0.782,6.948 1.629,16.272 -1.025,25.124 c60.674,-0.5740000000000002 135.05,-1.544 202.02,-1.538 c1.428,-2.846 -0.401,-8.947 1.025,-11.793 c16.327,-0.9690000000000002 37.66,0.17300000000000001 58.454,-0.513 c10.283,-0.3390000000000002 20.334,1.282 29.739,0.513 c4.662,-0.3810000000000001 11.207,0.07700000000000003 16.921,0 c5.548,-0.07500000000000002 11.233,-0.9490000000000002 14.357,0 c5.039,1.5310000000000001 9.942,11.402 13.845,14.357 c2.43,-1.262 10.009,-1.921 12.306000000000001,0 c-0.774,3.156 -7.045,0.8170000000000002 -10.255,1.538 c2.294,4.2 5.841,7.148 8.717,10.768 c-0.3240000000000001,6.854 0.6600000000000003,15.017 -0.513,21.022 c-5.471,-0.992 -11.064,0.777 -16.921,0.513 c-1.872,-0.08400000000000003 -3.762,-0.975 -5.641,-1.025 c-31.933,-0.8500000000000002 -67.748,1.271 -97.936,-0.513 c-8.228,-9.206 -15.46,-19.407 -23.587,-28.714 c-0.461,-1.501 -0.461,-1.5750000000000002 0,-3.076 c-90.623,1.512 -194.21,0.048000000000000015 -288.17,2.563 c-26.376,0.7060000000000002 -57.258,-0.5700000000000002 -82.041,0 c-2.59,0.06000000000000002 -8.131,2.18 -9.742,-1.025 c0.18500000000000005,-1.653 4.856,-1.7670000000000003 7.179,-1.538 c1.34,0.131 2.027,1.022 3.077,1.025 c3.605,0.009000000000000006 7.333,-0.8860000000000002 11.28,-1.025 c37.196,-1.318 72.181,0.4940000000000001 106.65,-1.025 c-8.189,-8.128 -24.003,-10.699 -34.867,-17.434 c-2.388,-1.48 -4.9030000000000005,-2.951 -7.179,-4.615 c-2.083,-1.5230000000000001 -5.05,-2.988 -5.6400000000000015,-5.641 c4.162,0.9660000000000002 6.774,3.481 9.229,6.1530000000000005 c10.65,6.271 22.699,11.143 35.38,15.383000000000001 c2.05,0.17 2.846,-0.914 5.127,-0.513 c-2.318,3.5700000000000003 0.04300000000000002,3.095 1.025,6.666 c13.113,0.6950000000000004 27.962,0.6150000000000002 38.969,0 c-0.463,-11.52 2.03,-27.866 3.589,-42.046 c0.18400000000000005,-1.6700000000000004 0.3060000000000001,-3.124 1.025,-4.615 c-4.246,-0.09200000000000005 -7.469,0.12300000000000003 -11.793,0 c-1.3820000000000001,-0.039000000000000014 -4.052,0.4730000000000001 -7.179,0.513 c-2.817,0.03700000000000001 -6.707,-1.031 -10.255,-1.025 c-9.494,0.017000000000000008 -19.61,-2.382 -29.227,-4.102 c-6.088,-1.09 -12.589,-3.045 -14.870000000000001,-5.128 c-2.298,-2.098 -3.688,-6.833 -5.6400000000000015,-10.768 c-1.848,-3.726 -4.515,-7.14 -6.1530000000000005,-10.255 c-4.109,-7.815 -5.399,-16.694 -8.204,-24.1 c-2.782,-7.345 -6.651,-14.232 -9.742,-21.023 c-2.45,-5.381 -5.168,-10.353 -6.666,-16.407 c-0.522,-2.111 -0.22800000000000006,-4.338 -1.025,-6.1530000000000005 c-1.444,-3.2880000000000003 -5.556,-4.254 -8.204,-6.1530000000000005 c-1.705,-4.5120000000000005 -1.064,-7.399 -3.589,-10.768 c-1.322,-1.7640000000000002 -3.706,-2.337 -5.127,-4.103 c-0.981,-1.218 -1.003,-3.206 -2.051,-5.127 c-1.978,-3.624 -5.478,-6.242 -6.1530000000000005,-9.229 c-0.503,-2.226 0.783,-4.671 0,-7.179 c-0.98,-1.361 -1.998,3.414 -3.589,1.538 c0.04300000000000002,-1.8370000000000002 0.797,-2.963 1.026,-4.614 c-1.254,-6.096 -4.766,-9.934 -7.179,-14.870000000000001 c-1.832,-10.345 -3.19,-21.011 -1.025,-31.278 c0.3790000000000001,-1.798 1.54,-3.345 2.051,-5.127 c1.738,-6.059 2.082,-12.145 4.102,-17.434 c3.289,-8.609 9.454,-15.297 15.896,-21.536 c5.001,-4.843 6.816,-7.296 13.332,-10.255 c8.462,-3.843 21.83,-12.038 32.303,-4.102 c-1.9460000000000002,2.462 -5.683,-0.6920000000000004 -8.204,-1.025 c-7.473,-0.987 -15.093,3.018 -19.997,6.666 c-9.251,2.372 -15.57,7.675 -19.485,15.383000000000001 c-4.4030000000000005,1.542 -5.135,3.8970000000000002 -8.204,8.717 c-2.495,3.919 -3.265,5.077 -5.127,10.255 c-1.336,3.716 -0.8160000000000002,5.695 -1.538,10.768 c-0.6700000000000004,4.706 -2.8760000000000003,10.354 -4.102,14.870000000000001 c-1.6670000000000005,6.14 1.484,13.96 3.077,19.484 c-0.07900000000000003,1.6310000000000002 -1.163,2.2560000000000002 -1.026,4.103 c1.282,4.529 4.83,6.792 6.666,10.768 c2.374,-0.9450000000000002 1.7730000000000001,-4.164 2.051,-6.1530000000000005 c0.3300000000000001,-2.356 1.025,-4.772 0.513,-7.178 c-0.92,-4.329 -7.106,-7.714 -5.127,-11.794 c3.426,2.7270000000000003 3.275,9.031 7.179,11.281 c0.23,1.947 -1.3290000000000002,3.6470000000000002 0,5.127 c2.6660000000000004,-1.437 3.476,-4.729 5.6400000000000015,-6.666 c0.12200000000000003,-3.9690000000000003 -3.052,-7.084 -2.051,-10.255 c1.719,2.725 2.8770000000000002,6.01 4.102,9.229 c4.641,-1.854 6.875,-6.114 13.332,-6.1530000000000005 c1.8890000000000002,-0.504 2.956,-1.83 4.615,-2.564 h4.102 c3.406,-2.094 5.904,-5.957 9.229,-9.229 c1.5150000000000001,-1.491 3.257,-2.56 5.127,-4.102 c1.6760000000000004,-1.381 2.983,-3.5780000000000003 4.615,-4.102 c2.2800000000000002,-0.7310000000000002 4.518,-0.3640000000000001 7.179,0 c-2.023,6.352 -9.379,7.371 -12.819,12.306000000000001 c0.07200000000000002,1.467 2.1390000000000002,0.9380000000000002 3.589,1.026 c-2.332,2.44 -5.52,1.621 -8.717,2.563 c-2.568,0.7570000000000002 -4.686,2.761 -7.179,3.589 c-1.61,0.535 -3.603,0.14900000000000005 -5.127,0.513 c-7.232,1.7240000000000002 -12.346,5.263 -16.921,9.743 c0.5900000000000002,3.544 1.105,5.6930000000000005 0,9.229 c-2.544,-0.8360000000000002 -1.6350000000000002,1.783 -3.589,1.538 c-1.158,-2.079 0.8490000000000002,-4.79 0.513,-7.691 c-1.8370000000000002,-1.302 -2.74,2.7110000000000003 -4.102,3.589 c-0.3670000000000001,1.393 2.418,-0.3660000000000001 2.051,1.026 c-0.07700000000000003,1.975 -2.854,1.247 -3.589,2.563 c-1.131,3.275 0.24600000000000005,5.868 0.513,9.229 c0.269,3.387 -0.8840000000000002,6.398 0,8.717 c1.2770000000000001,3.348 6.439,4.432 5.6400000000000015,8.717 c-0.6730000000000004,-8.136 4.833,-13.304 7.179,-19.997 c-0.18100000000000005,-0.6740000000000004 -0.903,-0.807 -1.025,-1.5390000000000001 c-2.3200000000000003,-1.7650000000000001 -3.132,2.854 -5.641,1.026 c0.2910000000000001,-2.273 1.661,-3.467 1.5390000000000001,-6.1530000000000005 c3.448,-2.318 5.32,-6.958 8.717,-9.742 c1.533,-1.258 3.48,-1.979 5.127,-3.077 c1.443,-0.9600000000000002 2.684,-3.174 4.615,-2.563 c-4.586,6.335 -19.484,11.401 -11.793,22.049 c7.609,-4.014 14.812,-8.434 22.562,-12.307 c2.949,-0.925 4.994,0.24100000000000005 7.178,-1.025 c-1.51,-1.517 -3.243,-0.057000000000000016 -5.6400000000000015,-1.025 c-2.124,1.808 -5.019,2.8440000000000003 -8.204,3.589 c-2.748,1.867 -5.047,4.183 -9.742,4.103 c2.118,-3.8920000000000003 4.68,-7.333 9.229,-8.717 c3.279,-0.998 7.191,-0.20600000000000004 10.768,-1.025 c1.284,-0.2950000000000001 2.211,-1.5990000000000002 3.589,-2.052 c4.949,-1.625 10.659,-0.8680000000000002 14.870000000000001,-1.538 c2.231,-1.346 2.055,-4.479 5.127,-5.127 c2.718,-0.5740000000000002 5.671,2.027 9.229,2.564 c6.36,0.9590000000000002 13.283,-0.91 17.434,1.538 c1.204,-5.218 2.085,-13.162 2.051,-17.946 c-5.158,-1.166 -12.455,-0.19300000000000006 -18.459,-0.513 c0.15400000000000005,-1.385 2.157,-0.919 2.564,-2.051 c-5.298,1.665 -12.301,-0.233 -16.921,1.538 c-1.97,0.7400000000000002 -2.59,2.88 -4.631,3.58 zm86.651,-204.59 c2.3810000000000002,-3.278 -4.582,-6.482 -3.589,-6.666 c0.3660000000000001,2.539 3.357,2.454 3.077,5.641 c-4.237,-2.087 -5.968,-6.681 -8.717,-10.255 c-3.35,-3.316 -9.298,-4.034 -12.819,-7.178 h-3.077 c-5.764,-3.761 -8.087,-12.692 -18.972,-9.743 c-3.5620000000000003,-2.174 -6.53,-5.848 -11.793,-5.6400000000000015 c-3.646,0.14400000000000004 -6.12,2.916 -9.229,2.564 c0.08800000000000004,-1.963 3.297,-0.805 3.076,-3.077 c-1.856,-1.6 -2.6550000000000002,1.141 -4.615,1.025 c1.076,2.062 0.21600000000000005,4.438 -2.051,4.615 c-0.7070000000000002,-0.6610000000000003 -0.507,-2.227 -0.513,-3.589 c-9.895,2.241 -17.775,6.496 -23.587,12.819 c-0.28,-0.7450000000000002 0.6000000000000002,-2.6500000000000004 -0.513,-2.563 c-3.924,3.7670000000000003 -11.534,3.849 -11.793,11.28 c-1.9060000000000001,0.3170000000000001 -3.222,1.222 -5.128,1.5390000000000001 c-0.6820000000000004,4.613 1.935,5.927 3.077,8.717 c-0.811,1.069 -1.6710000000000005,2.088 -2.051,3.589 c2.5140000000000002,4.389 9.177,10.951 2.051,14.870000000000001 c-0.2830000000000001,5.752 3.185,7.7540000000000004 5.6400000000000015,10.768 c3.026,0.22200000000000006 7.312,-0.8170000000000002 7.691,2.051 c-2.529,-1.3290000000000002 -4.594,0.91 -6.666,0.513 c-3.632,-0.6960000000000004 -4.353,-2.995 -6.1530000000000005,-6.1530000000000005 c-1.536,-2.694 -2.566,-4.577 -2.051,-8.204 c1.6280000000000001,-1.2770000000000001 2.933,-2.878 3.589,-5.128 c-2.367,-3.273 -5.013,-6.268 -6.666,-10.255 c3.128,-1.788 -0.3330000000000002,-7.475 -1.025,-10.255 c-2.736,1.366 -3.27,4.9350000000000005 -4.102,8.204 c-4.4,0.3510000000000001 -3.181,4.718 -4.615,8.717 c-0.77,2.146 -2.263,3.729 -2.564,5.127 c-0.4830000000000001,2.25 1.201,5.167 -1.025,6.666 c-1.393,0.3670000000000001 0.3670000000000001,-2.417 -1.025,-2.051 c-0.19000000000000006,1.689 -1.198,2.5620000000000003 -2.051,3.589 c0.7120000000000002,1.51 1.209,3.234 1.5390000000000001,5.127 c-2.583,5.396 -0.6460000000000002,11.813 0,17.946 c1.717,2.555 4.165,4.381 5.127,7.691 c-1.912,-0.3100000000000001 -2.087,-2.357 -4.102,-2.564 c1.256,4.213 6.753,4.186 8.204,8.204 c0.771,0.994 2.159,-0.8960000000000002 2.563,1.025 c-0.3980000000000002,0.11500000000000003 -1.011,0.014000000000000004 -1.025,0.513 c2.821,-0.256 6.718,0.5650000000000002 8.717,-0.513 c1.366,-1.1480000000000001 -0.7250000000000002,-2.569 0.513,-3.589 c5.473,-0.509 13.806000000000001,1.8410000000000002 13.844,-4.102 c-6.049,0.8 -11.528,-6.552 -6.666,-10.255 c0.7320000000000002,4.054 1.723,7.848 6.1530000000000005,8.204 c0.08600000000000003,-1.453 0.9400000000000002,-2.137 1.025,-3.589 c4.349,-1.633 4.881,-7.083 9.23,-8.717 c-1.234,3.552 -3.924,5.647 -5.128,9.229 c0.9540000000000002,1.7810000000000001 3.094,2.376 3.589,4.615 c-0.09500000000000006,2.17 -2.63,2.763 0,3.589 c-2.573,3.983 -4.472,-1.134 -6.1530000000000005,-2.563 c0.07600000000000003,5.3420000000000005 -7.132,5.667 -11.793,4.615 c-2.469,4.148 -8.737,8.096 -14.357,4.615 c-1.046,7.96 -0.4070000000000001,18.156 -2.051,24.099 c17.565,2.433 29.894,10.101 42.046,17.947 c0.23500000000000001,-2.354 -2.212,-3.952 -0.513,-6.1530000000000005 c-2.63,0.05300000000000002 -2.498,-5.346 -2.051,-6.666 c1.816,0.06400000000000003 2.918,0.8420000000000002 4.102,1.5390000000000001 c-0.15300000000000005,1.385 -2.157,0.919 -2.563,2.051 c4.132,0.56 3.277,6.192 3.076,9.743 c2.188,0.3750000000000001 1.7520000000000002,3.375 4.615,3.076 c-0.4920000000000001,-4.563 0.8190000000000002,-8.176 3.076,-12.306000000000001 c1.126,2.409 -0.22400000000000006,5.165 -1.538,6.666 c2.9699999999999998,2.858 -0.06500000000000003,9.629 -3.589,8.717 c0.261,2.644 2.6900000000000004,3.121 3.077,5.6400000000000015 c-0.406,1.474 -1.4140000000000001,2.347 -2.051,3.589 c4.809,1.2810000000000001 7.746,6.805 13.845,5.127 c0.057000000000000016,0.9690000000000002 1.6950000000000005,0.3560000000000001 1.538,1.5390000000000001 c-1.978,1.75 0.3370000000000002,1.044 1.025,2.563 c-8.293,1.5510000000000002 -12.417,-4.644 -17.434,-9.229 c1.064,-2.589 -0.3240000000000001,-2.689 -1.538,-4.102 c2.5140000000000002,-1.6500000000000004 -3.428,-4.086 0.513,-6.1530000000000005 c-4.917,-1.463 -7.553,-5.857 -11.793,-8.717 c-8.849,-5.9670000000000005 -22.688,-8.984 -33.329,-12.819 c-1.098,0.9530000000000002 -3.059,1.043 -3.076,3.076 c23.545,7.049 39.212,21.977 53.839,37.944 c5.449,6.687 11.437,12.834 15.896,20.51 c-0.5860000000000002,-4.029 -1.312,-7.917 -1.5390000000000001,-12.306000000000001 c-3.265,-0.6660000000000003 -6.209,-1.653 -7.178,-4.615 c0.7670000000000002,-0.08700000000000004 1.8920000000000003,0.18300000000000005 2.051,-0.513 c-1.9809999999999999,-0.924 -5.079,-0.7320000000000002 -5.127,-3.589 c2.758,1.542 8.469,2.196 11.281,2.051 c2.1390000000000002,-2.134 3.8520000000000003,-4.694 6.666,-6.1530000000000005 c0.3800000000000001,3.467 -2.408,6.466 -2.051,8.204 c0.934,-1.044 2.817,-2.9610000000000003 4.102,-2.051 c0.3450000000000002,1.6640000000000001 -3.564,3.547 -1.026,4.102 c0.9650000000000002,-1.227 2.704,-4.918 4.102,-2.563 c0.904,-2.002 -0.6310000000000002,-6.442 2.051,-6.666 c0.784,1.6310000000000002 0.18000000000000005,2.2560000000000002 0,4.102 c3.4370000000000003,-2.276 -1.023,-8.129 2.563,-10.255 c1.215,3.004 4.845,5.699 2.564,9.229 c2.924,0.3600000000000001 0.8350000000000002,-4.292 3.589,-4.102 c0.08700000000000004,0.7670000000000002 -0.18300000000000005,1.8930000000000002 0.513,2.051 c2.158,-3.9050000000000002 -1.854,-9.598 1.538,-13.332 c3.565,-0.7080000000000002 5.04,-3.507 5.128,-7.691 c-2.447,-0.3960000000000002 -3.3,0.802 -5.641,0.513 c-1.3410000000000002,-2.504 -2.229,-0.07900000000000003 -5.127,-1.025 c-1.581,2.527 -3.332,7.598 -7.179,6.1530000000000005 c0.269,-3.492 3.754,-3.766 5.128,-6.1530000000000005 c-4.401,-0.556 -6.042,-3.871 -11.793,-3.077 c-2.873,-2.084 -6.665,-3.249 -8.717,-6.1530000000000005 c0.97,-1.469 2.951,1.78 3.589,0.513 c-3.748,-0.8670000000000002 -3.047,-6.183 -4.615,-9.229 c0.402,-1.731 3.388,-3.06 1.025,-4.615 c0.101,1.469 0.06300000000000003,2.799 -1.538,2.564 c-1.362,-2.374 -1.37,-6.483 0.513,-8.204 c-2.7270000000000003,-0.17900000000000005 -2.707,-3.104 -4.615,-4.102 c-1.191,3.404 0.523,4.292 1.025,7.179 c-5.329,-1.59 -2.055,-5.801 -1.5390000000000001,-10.768 c0.4770000000000001,-4.584 -1.208,-8.173 0,-11.281 c-1.7770000000000001,0.7030000000000002 -1.6320000000000001,-2.985 -3.076,-4.102 c-0.4700000000000001,2.095 -2.46,4.824 -4.102,4.102 c1.6790000000000005,-2.5940000000000003 2.543,-6.003 5.127,-7.691 c-2.722,-3.313 2.958,-7.32 2.051,-10.255 c-1.7510000000000003,2.186 -4.453,6.135 -8.717,4.102 c0.6940000000000004,-4.41 5.188,-7.259 10.255,-5.641 c0.6860000000000004,-1.6780000000000004 0.7210000000000002,-6.7620000000000005 -0.513,-6.1530000000000005 c2.689,4.873 -8.216,4.434 -8.717,1.025 c0.23800000000000004,-1.812 2.299,-1.803 2.051,-4.102 c-1.6620000000000004,0.4090000000000001 -4.1530000000000005,2.657 -6.1530000000000005,1.025 c1.77,-2.7880000000000003 9.894,-2.2960000000000003 11.28,-1.025 c-14.408,-12.24 -20.379,15.721 -17.946,31.278 c4.619,1.03 4.425,-2.753 7.691,-3.077 c2.014,3.016 3.141,8.071 2.564,11.28 c-1.062,5.901 -8.039,5.188 -9.743,9.743 c1.062,0.3050000000000001 3.369,-0.6340000000000002 3.589,0.513 c-0.15800000000000006,1.209 -1.7810000000000001,0.9540000000000002 -1.538,2.563 c0.3140000000000001,0.7110000000000002 1.974,0.07700000000000003 2.051,1.025 c-0.16400000000000006,1.204 -1.5870000000000002,1.1480000000000001 -2.051,2.051 c7.845,-0.251 0.2840000000000001,7.014 -2.051,4.615 c0.3550000000000001,-1.013 1.368,-1.367 2.564,-1.538 c-0.15200000000000005,-1.729 -2.273,-1.487 -2.564,-3.077 c-0.2920000000000001,-2.613 -1.146,-4.666 -1.538,-7.179 c1.522,-3.2640000000000002 4.913,-4.659 8.204,-6.1530000000000005 c1.739,-4.045 1.115,-6.349 0,-10.768 c-2.696,1.244 -4.334,3.091 -7.179,2.563 c-5.171,-0.9590000000000002 -3.531,-6.266 -3.077,-10.255 c0.256,-2.246 -0.19500000000000006,-4.66 0,-7.179 c0.8140000000000002,-10.474 4.605,-19.053 9.743,-20.51 c2.459,1.1320000000000001 4.538,-0.778 6.666,-0.513 c3.8920000000000003,0.4850000000000001 6.26,4.166 9.743,4.102 c0.8200000000000002,2.7520000000000002 2.221,2.9450000000000003 2.051,5.641 c-0.09500000000000006,1.5110000000000001 -2.148,3.181 -2.051,4.102 c0.14100000000000001,1.336 2.85,1.803 2.051,3.589 c2.738,-0.16700000000000007 2.419,-3.392 4.615,-4.102 c1.075,3.094 -2.536,5.3260000000000005 0,6.666 c0.527,-3.233 2.3200000000000003,-5.201 2.564,-8.717 c1.71,-0.529 5.338,-1.8170000000000002 4.615,-3.077 c-0.07,0.8440000000000002 -3.52,0.8440000000000002 -3.589,0 c1.26,-2.158 4.7780000000000005,-2.059 6.666,-3.589 c0.403,-2.186 -2.6390000000000002,-4.378 0,-5.6400000000000015 c2.5,-0.6190000000000002 1.722,2.039 3.589,2.051 c-0.7680000000000002,-3.817 2.859,-6.208 0,-7.691 c1.735,-0.6780000000000004 2.087,-4.829 4.615,-3.077 c0.781,-1.27 1.053,-3.049 2.564,-3.589 c1.264,2.8 -2.232,7.223 1.538,8.717 c2.386,-2.229 4.971,-4.259 4.102,-9.742 c3.217,-2.9050000000000002 9.093,-1.703 14.357,-1.538 c-0.031000000000000014,1.911 0.517,3.243 1.026,4.615 c3.105,-0.3710000000000001 4.206,1.263 6.666,1.538 c0.26,-2.133 -0.17800000000000005,-4.964 2.051,-5.127 c1.5870000000000002,4.053 1.3820000000000001,9.898 4.615,12.306000000000001 c3.2800000000000002,-6.259 -0.2900000000000001,-17.309 -4.58,-21 zm-41.02,-31.278 c3.761,-0.16400000000000006 7.06,2.843 9.229,2.563 c-2.3,-1.159 -6.83,-4.832 -9.23,-2.563 zm-52.81,8.717 c1.55,-0.7300000000000002 6.365,-2.3 4.102,-3.589 c0.20500000000000004,2.443 -5.305,1.85 -4.102,3.589 zm69.22,2.05 c3.427,-0.509 5.094,3.4370000000000003 7.179,2.564 c-0.8930000000000002,-2.525 -3.5940000000000003,-3.243 -6.1530000000000005,-4.102 c0.15000000000000005,1.008 -0.7000000000000002,1.017 -1.03,1.538 zm-74.86,1.026 c0.049000000000000016,-1.318 2.001,-0.7330000000000002 2.051,-2.051 c-0.971,0.10300000000000002 -3.398,1.322 -2.051,2.051 zm85.63,0 h1.025 v-1.025 h-1.025 v1.025 zm-95.885,7.691 c3.512,0.264 3.867,-2.628 4.615,-5.127 c1.393,-1 4.479,-0.3070000000000001 4.615,-2.564 c-6.222,-0.5810000000000002 -7.728,3.553 -9.23,7.691 zm105.12,-2.051 c-1.107,-0.79 -5.761,-2.869 -5.128,-2.051 c1.3900000000000001,0.6860000000000004 3.06,3.7560000000000002 5.13,2.051 zm0,5.6400000000000015 c1.466,1.2850000000000001 -1.24,-3.5140000000000002 -2.051,-1.538 c0.6800000000000004,0.515 1.9100000000000001,0.4850000000000001 2.05,1.538 zm5.6400000000000015,4.103 c-0.22600000000000006,-2.521 -2.861,-5.327 -4.102,-5.127 c1.44,1.633 2.92,3.225 4.1,5.127 zm-15.38,14.869 h1.026 c0.5740000000000002,-0.7380000000000002 0.553,-1.251 -0.513,-1.538 c-0.040000000000000015,0.6550000000000002 -0.6700000000000004,0.7100000000000002 -0.52,1.538 zm-6.67,3.077 c0.08500000000000003,-1.453 0.9390000000000002,-2.137 1.025,-3.589 h-1.538 c0.3100000000000001,1.062 -0.6200000000000002,3.368 0.52,3.589 zm30.77,3.589 c0.07500000000000002,-2.297 -0.055000000000000014,-4.389 -1.025,-5.641 c0.3700000000000001,1.858 0.19000000000000006,4.251 1.03,5.641 zm-8.21,8.204 c-4.521,-3.1470000000000002 -3.4450000000000003,-13.541 -12.306000000000001,-10.768 c-8.03,-6.184 -11.096,7.222 -19.997,6.666 c-1.206,-0.16200000000000006 -0.3040000000000001,-2.431 -2.051,-2.051 c-0.6480000000000002,8.069 -8.087,9.347 -9.229,16.921 c-1.871,1.719 -4.832,2.347 -6.1530000000000005,4.615 c-0.9380000000000002,4.361 -0.7680000000000002,9.829 -6.666,9.229 c0.11600000000000003,6.676 -4.67,11.065 -3.589,17.434 c0.4910000000000001,2.8930000000000002 4.18,5.159 3.077,9.23 c1.7650000000000001,2.166 3.443,4.4190000000000005 4.102,7.691 c3.645,0.799 4.654,4.234 7.691,5.6400000000000015 c4.949,0.4920000000000001 9.118,-1.319 13.332,0 c2.166,-1.423 4.252,-2.926 7.691,-3.076 c2.652,-2.025 5.704,-6.176 9.742,-5.127 c-0.8330000000000002,1.731 -2.837,2.29 -2.564,5.127 c1.5510000000000002,1.184 4.657,0.812 6.666,1.538 c1.393,3.73 6.961,5.706 8.717,1.025 c0.276,-4.581 -1.776,-9.249 -2.564,-13.844 c-0.6020000000000002,-3.507 -1.6580000000000004,-8.483 -1.538,-10.255 c0.22200000000000006,-3.279 3.438,-5.084 2.563,-8.204 c-3.253,0.511 -6.021,-3.887 -8.717,-5.6400000000000015 c-4.708,-0.4190000000000001 -8.697000000000001,-1.558 -11.28,-4.102 c-1.544,-1.533 -5.562,-0.5910000000000002 -5.641,-3.589 c9.488,2.818 21.794,2.818 27.176,9.742 c2.343,-9.766 7.472,-18.406 7.691,-28.714 c-1.53,0.6950000000000004 -3.92,0.534 -6.15,0.525 zm7.69,-6.1530000000000005 c0.14,-0.6980000000000004 -0.3170000000000001,-2.001 -0.513,-1.025 c-0.14,0.6980000000000004 0.3200000000000001,2.001 0.51,1.025 zm-56.4,18.459 c0.6650000000000003,-0.902 3.542,-2.229 2.563,-3.076 c-0.08000000000000003,1.479 -4.67,1.101 -2.56,3.076 zm-13.33,14.357 c-0.451,1.6470000000000002 1.6900000000000004,0.7030000000000002 1.538,2.051 c-0.7480000000000002,1.804 -2.681,5.569 -0.513,7.179 c2.302,-3.338 0.254,-11.027 2.564,-14.357 c-0.11500000000000003,0.9690000000000002 0.5780000000000002,1.131 0.513,2.051 c1.7600000000000002,-0.2910000000000001 3.137,-0.9650000000000002 4.102,-2.051 c-1.24,-0.6400000000000002 -1.6590000000000005,-2.102 -2.051,-3.589 c-3.2960000000000003,1.771 -3.912,-2.229 -5.127,-4.102 c-2.02,3.3280000000000003 3.19,10.6 -1.02,12.819 zm-3.08,0.513 c1.808,-0.771 2.6340000000000003,-5.209 1.538,-7.179 c0.3600000000000001,3.076 -2.95,4.699 -1.54,7.179 zm-23.584,-1.025 c-0.10600000000000002,-1.629 -2.985,-3.134 -3.589,-2.564 c1.12,0.8570000000000002 1.577,4.201 3.589,2.564 zm29.744,22.051 c0.20800000000000005,-2.601 -1.118,-3.668 -2.564,-4.615 c0.3900000000000001,1.99 1.4300000000000002,3.35 2.56,4.62 zm3.07,13.84 c1.429,1.6470000000000002 2.448,3.705 4.102,5.127 c0.15700000000000006,1.183 -1.481,0.5700000000000002 -1.538,1.5390000000000001 c2.862,1.923 6.906,2.665 11.28,3.076 c0.22000000000000006,1.416 -1.912,0.4810000000000001 -2.051,1.538 c5.239,0.4240000000000001 8.344,-0.16300000000000006 12.819,1.026 c-0.07400000000000002,0.6060000000000002 -0.913,1.163 0,1.538 c1.766,-0.799 4.591,-2.692 6.1530000000000005,-2.051 c-0.15100000000000005,1.045 -1.387,1.005 -1.538,2.051 c2.461,-0.4440000000000001 3.574,-2.237 6.666,-2.051 c0.11500000000000003,0.9690000000000002 -0.5780000000000002,1.131 -0.513,2.051 c1.6540000000000004,0.252 3.03,-2.3930000000000002 4.102,-1.025 c-0.4820000000000001,1.3980000000000001 -2.786,0.974 -2.051,3.589 c5.396,-1.159 6.355,-10.629 2.563,-13.845 c-3.459,0.7260000000000002 -4.16,-1.3090000000000002 -6.666,-1.538 c-5.369,4.545 -15.685,4.142 -25.638,4.102 c0.5900000000000002,-2.71 -5.25,-7.21 -7.68,-5.14 zm6.67,61.53 c-0.15100000000000005,-1.729 -0.258,-3.502 -1.025,-4.615 c-0.09000000000000004,1.96 0.020000000000000007,3.73 1.02,4.61 zm0.51,5.6400000000000015 c-0.10500000000000002,-0.9690000000000002 0.3460000000000002,-5.066 -0.513,-3.589 c0.1,0.97 -0.3500000000000001,5.07 0.51,3.59 zm3.08,11.28 c2.5300000000000002,4.47 0,-1.28 0,0 zm4.1,6.15 c1.7400000000000002,4.62 -0.11000000000000003,-1.6300000000000003 0,0 zm4.1,8.21 c-0.7430000000000002,-1.82 -1.133,-3.9939999999999998 -2.563,-5.127 c0.5700000000000002,2 1.4100000000000001,3.71 2.56,5.13 zm1.54,3.08 c-0.7140000000000002,-0.6530000000000002 -0.22300000000000006,-2.512 -1.5390000000000001,-2.564 c0.13,0.93 1.11,3.6 1.54,2.56 zm2.56,8.71 c-0.07,-0.9550000000000002 -0.3370000000000002,-1.714 -1.025,-2.051 c-0.14,1.17 0.13,1.9300000000000002 1.03,2.05 zm-61.015,3.59 c-2.9450000000000003,2.012 -6.119,3.794 -7.691,7.178 c-1.839,1.079 -5.27,3.261 -4.615,5.128 c4.551,-4.337 10.203,-7.573 14.870000000000001,-11.793 c-0.5950000000000002,-0.4300000000000001 -1.374,-0.6800000000000004 -2.564,-0.52 zm43.585,27.69 c1.935,1.6600000000000001 3.375,8.242 4.615,12.306000000000001 c3.604,-0.08000000000000003 7.955,-8.692 8.204,-11.28 c0.7170000000000002,-7.4350000000000005 -6.417,-14.874 -9.229,-19.485 c-0.2930000000000001,6.543 -1.082,12.592 -3.076,17.433 c3.067,1.61 6.917,4.962 5.6400000000000015,9.23 c-3.24,-1.53 -2.62,-6.95 -6.15,-8.2 zm294.83,7.69 c-1.521,-4.062 -6.276,-5.343 -9.742,-8.203 c-2.212,-1.826 -3.494,-4.61 -5.641,-6.666 c-5.373,-5.149 -13.632,-9.649000000000001 -22.048,-10.255 c-11.919,-0.8580000000000002 -20.126,4.289 -27.176,10.768 c6.852,-5.037 21.333,-3.186 28.201,0.513 c-0.8790000000000002,3.907 -3.045,6.527 -4.615,9.742 c3.406,2.234 6.892,4.39 11.281,5.641 c5.648,-9.316 17.203,-2.908 24.099,1.538 c-1.449,0.4240000000000001 -1.328,-0.7230000000000002 -2.563,-0.513 c0.3270000000000001,1.791 2.6270000000000002,3.537 4.103,2.563 c0.972,-1.719 -2.516,-1.874 0,-2.051 c2.11,1.7400000000000002 2.8,-2.31 4.11,-3.07 zm-71.78,-15.38 c-1.043,0.8760000000000002 -3.985,1.191 -3.077,3.077 c3.134,-0.999 5.452,-4.164 8.204,-6.1530000000000005 c2.832,-2.046 6.459,-3.319 7.691,-5.641 c-4.73,2.1 -9.46,5.8900000000000015 -12.81,8.71 zm-223.05,5.6400000000000015 c-0.507,-1.371 1.133,-4.279 0,-3.076 c-0.7200000000000002,0.6700000000000004 -1.84,2.72 0,3.08 zm-29.74,-2.56 c-0.3960000000000002,2.827 0.802,4.024 0.513,0.513 c0.8820000000000002,0.027000000000000014 1.314,-0.3950000000000002 1.538,-1.025 c-0.97,-0.12000000000000002 -1.13,0.5700000000000002 -2.05,0.51 zm25.12,2.56 c-0.6480000000000002,-0.5880000000000002 -4.043,-1.029 -4.615,0 c1.59,0.010000000000000004 3.9,2.23 4.62,0 zm-45.63,4.61 c4.363,-0.3860000000000001 5.807,-0.6190000000000002 8.717,-2.563 c-2.857,0.9 -6.546,0.98 -8.717,2.56 zm11.28,-2.05 c1.7280000000000002,1.56 1.5550000000000002,-1.8900000000000001 0,0 zm-23.586,4.62 c2.206,0.135 6.084,-0.7270000000000002 5.127,-2.051 c-0.909,1.48 -4.368,0.4200000000000001 -5.127,2.05 zm363.03,4.1 c-1.501,0.134 -1.576,-1.159 -3.077,-1.025 c-0.2950000000000001,1.071 -1.271,1.463 -1.025,3.076 c0.6530000000000002,0.7140000000000002 2.512,0.22300000000000006 2.564,1.538 c-1.921,0.4170000000000001 -3.298,-2.3280000000000003 -4.103,0 c1.7810000000000001,0.09900000000000006 1.9460000000000002,1.8130000000000002 3.589,2.051 c0.8990000000000002,-2.52 3.111,-3.726 3.077,-7.179 c-1.083,-0.455 -1.516,-1.561 -3.077,-1.538 c-0.1,1.82 2.42,1.02 2.06,3.08 zm-300.47,-1.54 c-0.54,2.98 2.22,0.21000000000000005 0,0 zm30.25,4.62 c1.1640000000000001,-0.546 0.19500000000000006,-3.223 0.513,-4.615 h-1.538 c0.4700000000000001,1.4100000000000001 -1.05,4.8100000000000005 1.03,4.61 zm223.56,-4.62 c-7.752,14.376 -16.182,27.896 -24.611,41.533 c-4.087,6.611 -7.819,13.057 -12.307,19.484 c-2.152,3.084 -4.098,6.51 -6.1530000000000005,9.743 c-2.13,3.349 -4.503,6.654 -6.152,10.255 c5.519,0.6340000000000002 8.549,3.757 13.844,4.614 c1.021,-6.284 6.005,-10.597 8.717,-15.896 c1.472,-2.874 2.1,-5.928 3.59,-8.717 c7.351,-13.757 14.869,-27.576 22.561,-40.507 c3.238,-5.443 6.9719999999999995,-10.981 8.204,-17.434 c-2.16,-1.4100000000000001 -3.92,-3.23 -7.69,-3.06 zm41.53,10.77 c1.11,-1.064 0.028000000000000008,-1.7480000000000002 -1.025,-2.052 c0.07,0.9500000000000002 0.3400000000000002,1.71 1.02,2.05 zm-373.79,16.41 c0.406,-1.808 -1.604,-3.819 -2.563,-2.564 c1.205,0.5 0.8510000000000002,2.56 2.563,2.56 zm-4.615,4.61 c1.408,0.8140000000000002 3.72,0.7240000000000002 5.127,1.538 c-0.263,-3.668 -3.701,-4.161 -4.615,-7.179 c-0.9490000000000002,1.1 -0.3450000000000002,3.7600000000000002 -0.512,5.6400000000000015 zm119.99,13.34 c-0.7600000000000002,-0.08900000000000004 -0.17500000000000004,6.883 1.025,8.204 c0.4700000000000001,-3.55 -0.97,-5.18 -1.02,-8.2 zm-111.78,6.15 h1.5390000000000001 c0.06600000000000003,-0.92 -0.509,-1.199 -1.5390000000000001,-1.025 v1.03 zm272.78,27.69 c1.208,-0.012000000000000004 1.51,0.8830000000000002 3.076,0.513 c-0.010000000000000004,-0.7680000000000002 1.905,-2.098 0.513,-2.564 c-0.8600000000000002,1.01 -2.94,0.81 -3.59,2.05 zm-243.56,33.84 c-0.22900000000000006,-1.31 -0.7190000000000002,-2.357 -1.538,-3.076 c0.22800000000000006,1.31 0.7180000000000002,2.36 1.538,3.08 zm1.025,2.56 c2.219,6 0.513,-0.79 0,0 zm198.44,24.1 c4.09,1.33 -3.43,-1.54 0,0 zm9.74,2.56 c-3.29,-0.5900000000000002 -1.13,1.57 0,0 zm14.870000000000001,4.11 c3.051,-0.6650000000000003 10.176,-0.5650000000000002 11.28,-1.538 c-3.85,0.4200000000000001 -8.6,-0.05000000000000002 -11.28,1.54 zm-137.42,9.74 c0.7340000000000002,3.494 0.796,-2.108 1.025,-1.538 c-0.16800000000000007,-0.4180000000000001 -1.505,0.3540000000000001 -1.538,0.513 c0.07,-0.3100000000000001 0.4800000000000001,0.8600000000000002 0.52,1.03 zm0.51,4.1 c0.55,-3.54 -1.1,5.33 0,0 zm-1.02,12.82 c-0.05400000000000002,-1.312 -0.2910000000000001,-2.444 -1.026,-3.076 c-0.1,1.48 0.13,2.6100000000000003 1.03,3.08 zm339.95,35.89 c-4.683,-5.246 -6.757,-8.086 -11.793,-13.844 c-2.242,-2.5620000000000003 -4.942,-5.728 -6.666,-6.1530000000000005 c-1.077,-0.266 -4.11,0.547 -6.1530000000000005,0.513 c-6.932,-0.11600000000000003 -13.535,-0.513 -19.997,-0.513 c-26.598,0 -60.245,-0.3980000000000002 -86.143,0.513 c6.6880000000000015,9.037 13.787,17.661 21.535,25.638 c35.108,1.193 78.257,0.15000000000000005 114.34,0.513 c-0.030000000000000013,-2.93 -3.15,-4.46 -5.12,-6.67 zm-113.83,6.16 c-0.54,2.9699999999999998 2.22,0.21000000000000005 0,0 zm5.13,4.61 c0.08300000000000003,-0.3570000000000001 -0.17900000000000005,-2.984 -0.513,-1.5390000000000001 c-0.45,1.9500000000000002 0.27,2.5700000000000003 0.51,1.54 zm20,0 c0.08200000000000003,-0.3570000000000001 -0.18000000000000005,-2.984 -0.513,-1.5390000000000001 c-0.46,1.9500000000000002 0.27,2.5700000000000003 0.51,1.54 zm30.76,5.6400000000000015 c0.04300000000000002,2.349 -0.8810000000000002,5.753 1.025,6.666 c-1.415,-3.713 0.4220000000000001,-10.677 -1.025,-14.357 c0.040000000000000015,2.19 -0.05000000000000002,5.06 0,7.69 zm3.08,-1.54 c-0.20800000000000005,-1.5270000000000001 0.4960000000000001,-6.615 -0.513,-5.641 c0.2,1.53 -0.5,6.62 0.51,5.6400000000000015 zm2.05,-4.61 c0.14,-0.6980000000000004 -0.3170000000000001,-2.002 -0.513,-1.026 c-0.14,0.7000000000000002 0.3100000000000001,2 0.51,1.03 zm53.84,4.1 c-0.451,-3.392 1.7650000000000001,-6.267 -2.563,-5.641 v9.229 c1.451,-1.796 -0.3980000000000002,-6.893 1.025,-8.717 h1.025 c0.18000000000000005,1.3800000000000001 -0.4800000000000001,6.24 0.51,5.13 zm-76.4,2.56 c-0.24600000000000005,-1.992 0.553,-7.707 -0.513,-7.178 c0.24000000000000005,2 -0.56,7.71 0.51,7.18 zm14.870000000000001,-6.66 h1.025 v-1.026 h-1.025 v1.03 zm12.3,4.61 c-0.18800000000000006,-1.3780000000000001 0.4710000000000001,-6.241 -0.513,-5.127 c0.19000000000000006,1.3800000000000001 -0.4700000000000001,6.25 0.51,5.13 zm14.36,-4.1 c0.14,-0.6980000000000004 -0.3170000000000001,-2.002 -0.513,-1.025 c-0.14,0.7000000000000002 0.3100000000000001,2.01 0.51,1.03 zm5.13,6.67 c-0.257,-2.152 0.5640000000000002,-8.064 -0.513,-7.69 c0.25,2.15 -0.5700000000000002,8.06 0.51,7.69 zm10.77,1.54 c-0.277,-2.641 0.5950000000000002,-9.126 -0.513,-9.229 c0.27,2.63 -0.6000000000000002,9.12 0.51,9.23 zm12.3,-6.67 c-0.7360000000000002,-1.528 1.8,-3.124 -0.513,-3.077 c0.2900000000000001,0.9 -0.6200000000000002,3.01 0.51,3.08 zm2.05,-0.51 c0.06700000000000003,-0.6740000000000004 0.07700000000000003,-3.71 -0.514,-2.051 c-0.07,0.6700000000000004 -0.08000000000000003,3.71 0.51,2.05 zm-12.3,0.51 c0.08200000000000003,-0.3570000000000001 -0.17900000000000005,-2.984 -0.513,-1.538 c-0.46,1.9500000000000002 0.27,2.5700000000000003 0.51,1.54 zm-4.11,1.02 c0.06700000000000003,-0.6740000000000004 0.07700000000000003,-3.71 -0.513,-2.051 c-0.07,0.6800000000000004 -0.08000000000000003,3.71 0.51,2.05 zm-66.65,-0.51 c0.14,-0.6980000000000004 -0.3170000000000001,-2.002 -0.513,-1.025 c-0.14,0.6900000000000004 0.3100000000000001,2 0.51,1.02 zm-3.08,10.26 c2.018,-1.56 1.004,-9.593 0.513,-11.28 c-0.2,3.72 0.4900000000000001,8.35 -0.51,11.28 zm39.48,-9.75 c0.14,-0.6980000000000004 -0.3170000000000001,-2.002 -0.513,-1.025 c-0.14,0.7100000000000002 0.3200000000000001,2.01 0.51,1.03 zm15.9,-1.53 c0.525,3.834 -0.9570000000000002,10.342 0.513,11.793 c-0.3400000000000002,-3.77 0.6800000000000004,-8.88 -0.51,-11.79 zm-63.58,3.07 c0.08200000000000003,-0.3570000000000001 -0.18000000000000005,-2.984 -0.513,-1.538 c-0.46,1.96 0.27,2.5700000000000003 0.51,1.54 zm16.41,8.21 c-1.2890000000000001,-1.969 0.2980000000000001,-9.515 -1.026,-9.742 c0.6100000000000002,2.9699999999999998 -1.27,8.44 1.03,9.74 zm2.05,-5.6400000000000015 c-0.14,-1.098 0.3960000000000002,-5.47 -0.513,-4.102 c0.13,1.09 -0.4,5.46 0.51,4.1 zm26.66,-2.5700000000000003 c0.08200000000000003,-0.3570000000000001 -0.18000000000000005,-2.984 -0.513,-1.538 c-0.45,1.96 0.27,2.5700000000000003 0.51,1.54 zm36.92,8.21 c-0.277,-2.64 0.5950000000000002,-9.125 -0.513,-9.229 c0.27,2.64 -0.6000000000000002,9.12 0.51,9.23 zm12.3,-6.67 c-0.006000000000000004,-0.7520000000000002 0.19300000000000006,-4.195 -0.514,-2.563 c0.010000000000000004,0.7500000000000002 -0.19000000000000006,4.19 0.51,2.56 zm-105.11,2.5700000000000003 c-0.16600000000000006,-1.235 0.4380000000000001,-5.861 -0.513,-4.615 c0.16000000000000006,1.24 -0.4400000000000001,5.86 0.51,4.62 zm15.38,4.1 c0.015000000000000006,-0.8710000000000002 0.3990000000000002,-8.812 -0.513,-8.717 c0.3300000000000001,2.74 -0.6700000000000004,6.83 0.51,8.72 zm56.4,-9.23 c0.5680000000000002,3.273 -1.033,8.786 0.513,9.742 c-0.030000000000000013,-1.49 0.4800000000000001,-7.53 -0.51,-9.74 zm5.6400000000000015,9.74 c-0.011000000000000006,-1.003 0.4190000000000001,-9.184 -0.513,-9.229 c0.3400000000000002,2.91 -0.6700000000000004,7.17 0.51,9.23 zm-55.37,-2.5700000000000003 c-0.22300000000000006,-1.6800000000000004 0.519,-6.983 -0.513,-6.1530000000000005 c0.22000000000000006,1.6800000000000004 -0.52,6.99 0.51,6.15 zm8.2,2.06 c2.016,-0.18900000000000006 1.005,-8.354 0.513,-7.691 c-0.08000000000000003,2.64 0.3200000000000001,5.78 -0.51,7.69 zm56.92,-0.52 c-1.441,-0.9670000000000002 0.3870000000000001,-7.886 -1.025,-7.179 c0.3900000000000001,2.03 -0.9500000000000002,8.45 1.03,7.18 zm22.56,-3.58 c-0.06200000000000002,-0.8530000000000002 0.28,-4.6450000000000005 -0.513,-3.077 c0.06000000000000002,0.8500000000000002 -0.28,4.6400000000000015 0.51,3.08 zm1.54,4.61 c1.399,0.047000000000000014 1.032,-0.8540000000000002 2.051,0 c0.8,-1.002 -0.07200000000000002,-3.736 -0.513,-3.589 c-0.803,0.269 1.319,2.607 -1.025,2.051 c-0.3290000000000001,-2.063 0.6670000000000003,-5.452 -0.513,-6.666 v8.21 zm2.05,-5.6400000000000015 c0.06800000000000003,-0.6740000000000004 0.07800000000000003,-3.71 -0.513,-2.051 c-0.07,0.6700000000000004 -0.08000000000000003,3.71 0.51,2.05 zm-66.66,-0.51 c0.14,-0.6970000000000004 -0.3170000000000001,-2.001 -0.513,-1.025 c-0.14,0.6900000000000004 0.3100000000000001,1.99 0.51,1.02 zm2.05,0 c0.14,-0.6970000000000004 -0.3170000000000001,-2.001 -0.513,-1.025 c-0.14,0.6900000000000004 0.3200000000000001,1.99 0.51,1.02 zm54.35,6.15 c0.11000000000000003,-0.509 0.3260000000000001,-7.6720000000000015 -0.513,-7.179 c0.6300000000000002,2.6500000000000004 -1.17,6.69 0.51,7.18 zm-47.17,0 c0.19400000000000006,-0.3040000000000001 0.261,-6.884 -0.513,-6.1530000000000005 c0.3200000000000001,1.8900000000000001 -0.6700000000000004,5.1 0.51,6.15 zm4.61,-5.13 c0.14,-0.6980000000000004 -0.3170000000000001,-2.002 -0.513,-1.026 c-0.14,0.7000000000000002 0.3200000000000001,2.01 0.51,1.03 zm46.66,5.13 c1.218,-1.047 2.387,1.062 2.563,-1.025 c0.22000000000000006,-1.439 -1.911,1.2850000000000001 -2.051,-0.513 c-0.006000000000000004,-0.7520000000000002 0.19300000000000006,-4.196 -0.513,-2.563 v4.1 zm-71.27,-0.51 c-0.6230000000000002,-0.916 -0.09400000000000006,-2.983 -1.026,-3.589 c0.3800000000000001,1.1600000000000001 -0.92,4 1.03,3.59 zm-22.56,-1.03 c-1.393,0.3670000000000001 0.3670000000000001,-2.418 -1.025,-2.051 c-0.2900000000000001,1.05 0.16000000000000006,3.85 1.03,2.05 zm27.18,1.03 c-0.4690000000000001,-0.8980000000000002 -0.17600000000000005,-2.559 -1.025,-3.076 c0.3100000000000001,1.06 -0.8300000000000002,3.56 1.03,3.08 zm13.33,0.51 c0.6260000000000002,-0.04400000000000002 -0.04600000000000002,-4.28 -0.513,-3.076 c0.45,1.82 -1.32,2.64 0.51,3.08 zm6.66,-1.03 c0.06800000000000003,-0.6740000000000004 0.07800000000000003,-3.71 -0.513,-2.051 c-0.07,0.6800000000000004 -0.08000000000000003,3.71 0.51,2.05 zm9.23,0.52 c-0.005000000000000002,-0.7520000000000002 0.19400000000000006,-4.196 -0.513,-2.563 c0.010000000000000004,0.7400000000000002 -0.19000000000000006,4.19 0.51,2.56 zm18.97,0.51 c-0.3060000000000001,-1.062 0.6340000000000002,-3.368 -0.513,-3.589 c0.56,1.9500000000000002 -1.35,3.2 0.51,3.59 zm12.31,0 c0.8150000000000002,-0.808 0.14400000000000004,-2.746 -0.513,-3.589 c0.3000000000000001,1.06 -0.6400000000000002,3.37 0.51,3.59 zm-101.01,-0.51 c0.6520000000000002,-0.6060000000000002 0.21800000000000005,-1.937 -0.513,-2.563 c0.28,0.7400000000000002 -0.6000000000000002,2.64 0.51,2.56 zm44.61,-0.52 c-1.393,0.3670000000000001 0.3660000000000001,-2.418 -1.026,-2.051 c-0.2900000000000001,1.05 0.16000000000000006,3.85 1.03,2.05 zm46.15,1.03 c-0.2950000000000001,-0.901 0.6190000000000002,-3.013 -0.513,-3.076 c0.4400000000000001,1.82 -1.32,2.64 0.51,3.08 zm-79.99,-1.03 c0.14,-0.6980000000000004 -0.3170000000000001,-2.002 -0.513,-1.025 c-0.15000000000000005,0.7000000000000002 0.3100000000000001,2 0.51,1.02 zm-8.72,0 h1.025 v-1.025 h-1.025 c-0.010000000000000004,0.3400000000000002 -0.010000000000000004,0.6800000000000004 -0.010000000000000004,1.02 zm2.56,0 h1.025 v-1.025 h-1.025 c-0.010000000000000004,0.3400000000000002 -0.010000000000000004,0.6800000000000004 -0.010000000000000004,1.02 zm27.69,0.52 h1.025 c0.3130000000000001,-0.02900000000000001 0.6070000000000002,-0.07600000000000003 0.513,-0.513 c-0.6780000000000004,-0.006000000000000004 -0.4690000000000001,-0.8980000000000002 -1.025,-1.025 c-0.010000000000000004,0.6500000000000002 -0.6400000000000002,0.7100000000000002 -0.5,1.54 zm9.23,-1.54 c-0.4100000000000001,3.1 2.35,0.3400000000000002 0,0 zm6.67,0 c-0.4200000000000001,3.1 2.35,0.3400000000000002 0,0 zm-18.46,1.02 c-0.6550000000000002,-0.028000000000000008 -0.7100000000000002,-0.6570000000000003 -1.538,-0.513 c-0.8,1.26 1.7400000000000002,1.51 1.54,0.51 zm7.18,0.52 h1.025 v-1.025 h-1.025 v1.02 zm25.12,0 h1.026 v-1.025 h-1.026 v1.02 zm42.05,0.51 h1.026 c0.5730000000000002,-0.7380000000000002 0.553,-1.251 -0.514,-1.538 c0.010000000000000004,0.7100000000000002 -0.25,1.13 -0.52,1.54 z" id="svg_120" fill="#ffffff" fill-opacity="1"/>
	<path d="m7.708100418090821,481.41290985107423 c-1.374,-0.16800000000000007 -0.976,-3.84 -0.513,-6.1530000000000005 c0.5860000000000002,-2.928 2.088,-6.297 3.076,-9.229 c1.8370000000000002,-5.452 3.972,-12.356 6.666,-17.946 c1.228,-2.548 3.282,-4.504 4.615,-7.179 c3.362,-6.747 3.7510000000000003,-14.893 8.717,-20.51 c3.007,6.555 -3.473,13.222 -5.6400000000000015,17.946 c3.353,3.142 8.479,4.51 11.28,8.204 c1.3130000000000002,-0.15700000000000006 3.6950000000000003,-0.785 5.127,0 c-0.6550000000000002,1.8880000000000003 -3.342,1.127 -4.102,1.025 c-3.664,-0.4900000000000001 -7.631,-4.982 -11.281,-4.615 c-4.224,0.4250000000000001 -6.459,6.521 -8.204,11.28 c-0.5790000000000002,1.5790000000000002 -1.784,3.137 -2.051,4.103 c-1.307,4.729 -1.022,9.682 -2.564,13.845 c-0.5790000000000002,1.562 -1.986,2.706 -2.564,4.102 c-0.7530000000000002,1.84 -0.018000000000000006,4.82 -2.5620000000000003,5.14 z" id="svg_121" fill="#ffffff" fill-opacity="1"/>
</g></g></svg>